<svg width="30" height="30" viewBox="0 0 30 30" fill="none" xmlns="http://www.w3.org/2000/svg">
<path d="M15 2.5C11.5593 2.5 8.75 5.30933 8.75 8.75C8.75 12.1907 11.5593 15 15 15C18.4407 15 21.25 12.1907 21.25 8.75C21.25 5.30933 18.4407 2.5 15 2.5ZM7.8125 17.5C6.27031 17.5 5 18.7703 5 20.3125V21.062C5 22.9001 6.16545 24.5487 7.94312 25.6824C9.72079 26.816 12.153 27.5 15 27.5C17.847 27.5 20.2792 26.816 22.0569 25.6824C23.8346 24.5487 25 22.9001 25 21.062V20.3125C25 18.7703 23.7297 17.5 22.1875 17.5H7.8125Z" fill="#F7074F"/>
</svg>
