<svg width="24" height="24" viewBox="0 0 24 24" fill="none" xmlns="http://www.w3.org/2000/svg">
<path d="M4.76367 2.5C4.66404 2.4982 4.56504 2.51626 4.47247 2.55314C4.3799 2.59002 4.2956 2.64498 4.2245 2.7148C4.15341 2.78463 4.09694 2.86792 4.05839 2.95981C4.01984 3.0517 3.99999 3.15035 4 3.25V18.75C4 20.2599 5.24011 21.5 6.75 21.5H17.25C18.7599 21.5 20 20.2599 20 18.75V3.25C20 3.12502 19.9688 3.00202 19.9092 2.89217C19.8496 2.78232 19.7635 2.68911 19.6587 2.621C19.5539 2.55288 19.4338 2.51204 19.3092 2.50216C19.1846 2.49229 19.0595 2.5137 18.9453 2.56446L16.9844 3.43653L14.7783 2.55371C14.5996 2.48232 14.4004 2.48232 14.2217 2.55371L12 3.44238L9.77832 2.55371C9.59964 2.48232 9.40036 2.48232 9.22168 2.55371L7.01562 3.43653L5.05469 2.56446C4.96297 2.52372 4.86401 2.5018 4.76367 2.5ZM9.5 4.05762L11.7217 4.94629C11.9004 5.01769 12.0996 5.01769 12.2783 4.94629L14.5 4.05762L16.7217 4.94629C16.8147 4.98351 16.9141 5.00174 17.0143 4.99989C17.1144 4.99805 17.2131 4.97617 17.3047 4.93555L18.5 4.4043V18.75C18.5 19.4491 17.9491 20 17.25 20H6.75C6.05089 20 5.5 19.4491 5.5 18.75V4.4043L6.69531 4.93555C6.78685 4.97617 6.8856 4.99805 6.98573 4.99989C7.08586 5.00174 7.18535 4.98351 7.27832 4.94629L9.5 4.05762ZM7.75 8.5C7.65062 8.4986 7.55194 8.51696 7.45972 8.55402C7.36749 8.59108 7.28355 8.6461 7.21277 8.71588C7.142 8.78567 7.08579 8.86882 7.04743 8.96051C7.00907 9.05221 6.98932 9.15061 6.98932 9.25C6.98932 9.3494 7.00907 9.4478 7.04743 9.53949C7.08579 9.63118 7.142 9.71434 7.21277 9.78412C7.28355 9.8539 7.36749 9.90893 7.45972 9.94599C7.55194 9.98305 7.65062 10.0014 7.75 10H16.25C16.3494 10.0014 16.4481 9.98305 16.5403 9.94599C16.6325 9.90893 16.7164 9.8539 16.7872 9.78412C16.858 9.71434 16.9142 9.63118 16.9526 9.53949C16.9909 9.4478 17.0107 9.3494 17.0107 9.25C17.0107 9.15061 16.9909 9.05221 16.9526 8.96051C16.9142 8.86882 16.858 8.78567 16.7872 8.71588C16.7164 8.6461 16.6325 8.59108 16.5403 8.55402C16.4481 8.51696 16.3494 8.4986 16.25 8.5H7.75ZM7.75 13C7.65062 12.9986 7.55194 13.017 7.45972 13.054C7.36749 13.0911 7.28355 13.1461 7.21277 13.2159C7.142 13.2857 7.08579 13.3688 7.04743 13.4605C7.00907 13.5522 6.98932 13.6506 6.98932 13.75C6.98932 13.8494 7.00907 13.9478 7.04743 14.0395C7.08579 14.1312 7.142 14.2143 7.21277 14.2841C7.28355 14.3539 7.36749 14.4089 7.45972 14.446C7.55194 14.483 7.65062 14.5014 7.75 14.5H12.25C12.3494 14.5014 12.4481 14.483 12.5403 14.446C12.6325 14.4089 12.7164 14.3539 12.7872 14.2841C12.858 14.2143 12.9142 14.1312 12.9526 14.0395C12.9909 13.9478 13.0107 13.8494 13.0107 13.75C13.0107 13.6506 12.9909 13.5522 12.9526 13.4605C12.9142 13.3688 12.858 13.2857 12.7872 13.2159C12.7164 13.1461 12.6325 13.0911 12.5403 13.054C12.4481 13.017 12.3494 12.9986 12.25 13H7.75ZM15.25 13C15.1506 12.9986 15.0519 13.017 14.9597 13.054C14.8675 13.0911 14.7836 13.1461 14.7128 13.2159C14.642 13.2857 14.5858 13.3688 14.5474 13.4605C14.5091 13.5522 14.4893 13.6506 14.4893 13.75C14.4893 13.8494 14.5091 13.9478 14.5474 14.0395C14.5858 14.1312 14.642 14.2143 14.7128 14.2841C14.7836 14.3539 14.8675 14.4089 14.9597 14.446C15.0519 14.483 15.1506 14.5014 15.25 14.5H16.25C16.3494 14.5014 16.4481 14.483 16.5403 14.446C16.6325 14.4089 16.7164 14.3539 16.7872 14.2841C16.858 14.2143 16.9142 14.1312 16.9526 14.0395C16.9909 13.9478 17.0107 13.8494 17.0107 13.75C17.0107 13.6506 16.9909 13.5522 16.9526 13.4605C16.9142 13.3688 16.858 13.2857 16.7872 13.2159C16.7164 13.1461 16.6325 13.0911 16.5403 13.054C16.4481 13.017 16.3494 12.9986 16.25 13H15.25ZM7.75 16C7.65062 15.9986 7.55194 16.017 7.45972 16.054C7.36749 16.0911 7.28355 16.1461 7.21277 16.2159C7.142 16.2857 7.08579 16.3688 7.04743 16.4605C7.00907 16.5522 6.98932 16.6506 6.98932 16.75C6.98932 16.8494 7.00907 16.9478 7.04743 17.0395C7.08579 17.1312 7.142 17.2143 7.21277 17.2841C7.28355 17.3539 7.36749 17.4089 7.45972 17.446C7.55194 17.483 7.65062 17.5014 7.75 17.5H12.25C12.3494 17.5014 12.4481 17.483 12.5403 17.446C12.6325 17.4089 12.7164 17.3539 12.7872 17.2841C12.858 17.2143 12.9142 17.1312 12.9526 17.0395C12.9909 16.9478 13.0107 16.8494 13.0107 16.75C13.0107 16.6506 12.9909 16.5522 12.9526 16.4605C12.9142 16.3688 12.858 16.2857 12.7872 16.2159C12.7164 16.1461 12.6325 16.0911 12.5403 16.054C12.4481 16.017 12.3494 15.9986 12.25 16H7.75ZM15.25 16C15.1506 15.9986 15.0519 16.017 14.9597 16.054C14.8675 16.0911 14.7836 16.1461 14.7128 16.2159C14.642 16.2857 14.5858 16.3688 14.5474 16.4605C14.5091 16.5522 14.4893 16.6506 14.4893 16.75C14.4893 16.8494 14.5091 16.9478 14.5474 17.0395C14.5858 17.1312 14.642 17.2143 14.7128 17.2841C14.7836 17.3539 14.8675 17.4089 14.9597 17.446C15.0519 17.483 15.1506 17.5014 15.25 17.5H16.25C16.3494 17.5014 16.4481 17.483 16.5403 17.446C16.6325 17.4089 16.7164 17.3539 16.7872 17.2841C16.858 17.2143 16.9142 17.1312 16.9526 17.0395C16.9909 16.9478 17.0107 16.8494 17.0107 16.75C17.0107 16.6506 16.9909 16.5522 16.9526 16.4605C16.9142 16.3688 16.858 16.2857 16.7872 16.2159C16.7164 16.1461 16.6325 16.0911 16.5403 16.054C16.4481 16.017 16.3494 15.9986 16.25 16H15.25Z" fill="#122B46"/>
</svg>
