<svg width="24" height="24" viewBox="0 0 24 24" fill="none" xmlns="http://www.w3.org/2000/svg">
<path d="M5.23824 2.48926C5.03949 2.49236 4.85011 2.57423 4.71168 2.71686C4.57326 2.8595 4.4971 3.05125 4.49996 3.25C4.49996 5.43304 5.45935 7.22188 6.80367 8.70312C7.92286 9.93632 9.30926 10.9883 10.7158 12.001C7.53109 14.2984 4.49996 16.779 4.49996 20.75C4.49996 21.164 4.83546 21.5 5.24996 21.5C5.66446 21.5 5.99996 21.164 5.99996 20.75C5.99996 17.3561 8.85841 15.1698 12 12.9238C13.1805 13.7691 14.3224 14.6116 15.2802 15.5H10.2304C9.63042 15.99 9.08496 16.485 8.62496 17H16.6582C17.0215 17.4792 17.3206 17.975 17.5429 18.5H7.56538C7.31538 18.975 7.14453 19.47 7.05953 20H17.9492C17.9799 20.2434 18 20.4914 18 20.75C17.9985 20.8494 18.0169 20.9481 18.054 21.0403C18.091 21.1325 18.1461 21.2164 18.2158 21.2872C18.2856 21.358 18.3688 21.4142 18.4605 21.4526C18.5522 21.4909 18.6506 21.5107 18.75 21.5107C18.8493 21.5107 18.9478 21.4909 19.0394 21.4526C19.1311 21.4142 19.2143 21.358 19.2841 21.2872C19.3539 21.2164 19.4089 21.1325 19.4459 21.0403C19.483 20.9481 19.5014 20.8494 19.5 20.75C19.5 18.567 18.5406 16.7781 17.1962 15.2969C15.8519 13.8156 14.123 12.5928 12.4355 11.3896C10.748 10.1865 9.10192 9.00313 7.91499 7.69531C6.72806 6.38749 5.99996 5.00446 5.99996 3.25C6.0014 3.14962 5.98267 3.04997 5.94489 2.95695C5.9071 2.86394 5.85103 2.77946 5.78 2.70852C5.70897 2.63757 5.62441 2.58161 5.53135 2.54395C5.43829 2.50629 5.33862 2.48769 5.23824 2.48926ZM18.75 2.5C18.3355 2.5 18 2.836 18 3.25C18 3.50763 17.978 3.75574 17.9462 4H7.05953C7.14453 4.53 7.31538 5.025 7.56538 5.5H17.538C17.3146 6.02768 17.0165 6.52496 16.6591 7H8.62496C9.08496 7.515 9.63042 8.01 10.2304 8.5H15.2724C14.544 9.17586 13.7267 9.82208 12.8554 10.46C12.9099 10.499 12.9601 10.5362 13.0146 10.5752C13.3841 10.8382 13.7592 11.1064 14.1337 11.3789C16.9872 9.24741 19.5 6.866 19.5 3.25C19.5 2.836 19.1645 2.5 18.75 2.5Z" fill="#122B46"/>
</svg>
