<svg width="24" height="24" viewBox="0 0 24 24" fill="none" xmlns="http://www.w3.org/2000/svg">
<path d="M12 1.39062C11.4523 1.39062 10.7273 1.43915 10.0127 1.62695C9.32423 1.8079 8.59744 2.11301 8.15625 2.79297C8.14533 2.80692 8.1349 2.82125 8.125 2.83594C8.125 2.83594 8.12191 2.84299 8.12109 2.84473C8.11601 2.85308 8.10949 2.85971 8.10449 2.86816C8.10048 2.87494 8.09657 2.88177 8.09277 2.88867C8.08338 2.90462 8.07459 2.9209 8.0664 2.9375C8.04296 2.98016 7.67979 3.64088 7.24121 4.48242C6.78874 5.35063 6.29011 6.33262 6.04687 6.98926C5.73946 7.81912 5.88129 8.70112 6.125 9.52539C6.36871 10.3497 6.7431 11.1158 7.13476 11.6787C7.33406 11.9651 7.84651 12.6085 8.52344 13.4512C6.14916 16.3633 3.72851 18.7109 3.72851 18.7109C3.64949 18.7874 3.58826 18.8804 3.54916 18.9832C3.51006 19.086 3.49404 19.1961 3.50224 19.3058C3.51044 19.4154 3.54266 19.522 3.59661 19.6178C3.65057 19.7137 3.72494 19.7965 3.81445 19.8604L7.31445 22.3604C7.47084 22.4719 7.66408 22.5192 7.85431 22.4925C8.04455 22.4658 8.21729 22.3671 8.33691 22.2168C8.33691 22.2168 10.0438 20.0774 11.96 17.6885C13.8334 19.9851 15.6699 22.2256 15.6699 22.2256C15.7906 22.3726 15.9626 22.4684 16.1511 22.4934C16.3397 22.5184 16.5307 22.4709 16.6855 22.3604L20.1855 19.8604C20.2714 19.799 20.3433 19.7202 20.3967 19.6292C20.45 19.5381 20.4835 19.4369 20.495 19.332C20.5066 19.2271 20.4958 19.121 20.4635 19.0205C20.4312 18.9201 20.3781 18.8275 20.3076 18.749C20.3076 18.749 18.0174 16.1981 15.624 13.4873C15.6039 13.4646 15.5875 13.4446 15.5674 13.4219C16.3872 12.3773 16.7229 11.8543 16.8262 11.7305C16.8399 11.7138 16.853 11.6965 16.8652 11.6787C17.2569 11.1158 17.6313 10.3497 17.875 9.52539C18.1187 8.70112 18.2605 7.81912 17.9531 6.98926C17.7099 6.33262 17.2113 5.35063 16.7588 4.48242C16.3168 3.63436 15.9447 2.95838 15.9268 2.92578C15.9206 2.91323 15.9141 2.90086 15.9072 2.88867C15.9034 2.88177 15.8995 2.87494 15.8955 2.86816C15.8948 2.86688 15.8934 2.86652 15.8926 2.86523C15.8255 2.75282 15.7303 2.6599 15.6162 2.5957C15.1722 2.08946 14.5842 1.78382 13.9873 1.62695C13.2727 1.43915 12.5477 1.39062 12 1.39062ZM12 2.89062C12.4503 2.89062 13.0797 2.93895 13.6055 3.07715C14.0576 3.19599 14.3127 3.38847 14.4648 3.55371C14.4498 3.78203 14.4319 4.16738 14.3203 4.9043C14.3031 5.01786 14.2781 5.13687 14.2568 5.25391C13.721 5.18153 13.0843 5.13379 11.9717 5.13379C10.8464 5.13379 10.2065 5.18207 9.66699 5.25586C9.59623 4.81771 9.55425 4.42294 9.4834 4.09277C9.48308 4.09082 9.48275 4.08887 9.48242 4.08691C9.41956 3.80434 9.42427 3.65668 9.43066 3.59277C9.56224 3.41925 9.90491 3.20583 10.3945 3.07715C10.9203 2.93895 11.5497 2.89062 12 2.89062ZM15.6875 5.7168C16.033 6.40039 16.4141 7.15241 16.5469 7.51074C16.6555 7.80388 16.6304 8.44376 16.4365 9.09961C16.2426 9.75546 15.9086 10.4277 15.6348 10.8213C15.3922 11.1184 15.1712 11.4785 14.5615 12.2705C14.0204 11.654 13.5033 11.0631 13.0137 10.498C13.4417 9.95673 13.8419 9.46467 14.1406 9.10254C14.4829 8.68753 14.7116 8.4226 14.8809 8.15332C15.3325 7.45208 15.5372 6.56595 15.6875 5.7168ZM8.24512 5.85645C8.24777 5.86969 8.2473 5.87146 8.25 5.88477C8.39088 6.57744 8.62935 7.39563 9.12012 8.15625C9.42385 8.62701 10.113 9.4356 11.0937 10.5791C12.0745 11.7226 13.3007 13.1211 14.5 14.4795C16.6137 16.8736 18.1818 18.62 18.6348 19.125L16.3857 20.7314C16.0197 20.2853 14.6451 18.6107 12.8311 16.3848C11.8107 15.1327 10.7696 13.8512 9.94336 12.8242C9.11709 11.7972 8.47154 10.9741 8.36523 10.8213C8.0914 10.4277 7.75739 9.75546 7.56347 9.09961C7.36956 8.44376 7.34453 7.80388 7.45312 7.51074C7.57552 7.18034 7.93023 6.48496 8.24512 5.85645ZM11.9717 6.63379C12.9318 6.63379 13.4508 6.66567 13.8887 6.71875C13.8011 6.97468 13.7109 7.20297 13.6201 7.34375C13.6181 7.34667 13.6162 7.3496 13.6143 7.35254C13.5758 7.414 13.3269 7.73195 12.9834 8.14844C12.7326 8.45253 12.3706 8.90313 12.0166 9.3457C11.1635 8.34272 10.4825 7.50273 10.3799 7.34375C10.2538 7.14838 10.1529 6.93541 10.0625 6.71777C10.4991 6.66532 11.0175 6.63379 11.9717 6.63379ZM9.4834 14.6387C9.96284 15.2316 10.4604 15.8457 10.9912 16.498C9.19271 18.7389 7.93149 20.322 7.6084 20.7275L5.39941 19.1494C6.08483 18.467 7.64159 16.876 9.4834 14.6387Z" fill="#122B46"/>
</svg>
