<svg width="24" height="24" viewBox="0 0 24 24" fill="none" xmlns="http://www.w3.org/2000/svg">
<path d="M4.75 3.5C3.235 3.5 2 4.735 2 6.25V15.75C2 17.265 3.235 18.5 4.75 18.5H13.5V17.6602C13.35 17.4502 13.2205 17.23 13.1055 17H4.75C4.06 17 3.5 16.44 3.5 15.75V6.25C3.5 5.56 4.06 5 4.75 5H19.25C19.94 5 20.5 5.56 20.5 6.25V9.59961C21.065 9.88961 21.57 10.2696 22 10.7246V6.25C22 4.735 20.765 3.5 19.25 3.5H4.75ZM6.75 7.5C6.65062 7.49859 6.55194 7.51696 6.45972 7.55402C6.36749 7.59108 6.28355 7.6461 6.21277 7.71588C6.142 7.78566 6.08579 7.86882 6.04743 7.96051C6.00907 8.0522 5.98932 8.15061 5.98932 8.25C5.98932 8.34939 6.00907 8.4478 6.04743 8.53949C6.08579 8.63118 6.142 8.71434 6.21277 8.78412C6.28355 8.8539 6.36749 8.90892 6.45972 8.94598C6.55194 8.98304 6.65062 9.00141 6.75 9H17.25C17.3494 9.00141 17.4481 8.98304 17.5403 8.94598C17.6325 8.90892 17.7164 8.8539 17.7872 8.78412C17.858 8.71434 17.9142 8.63118 17.9526 8.53949C17.9909 8.4478 18.0107 8.34939 18.0107 8.25C18.0107 8.15061 17.9909 8.0522 17.9526 7.96051C17.9142 7.86882 17.858 7.78566 17.7872 7.71588C17.7164 7.6461 17.6325 7.59108 17.5403 7.55402C17.4481 7.51696 17.3494 7.49859 17.25 7.5H6.75ZM18 10.5C15.7997 10.5 14 12.2997 14 14.5C14 15.5071 14.38 16.4277 15 17.1328V21.75C15 21.8857 15.0369 22.0189 15.1067 22.1354C15.1764 22.2518 15.2765 22.3471 15.3962 22.4112C15.5158 22.4752 15.6506 22.5056 15.7862 22.499C15.9218 22.4925 16.0531 22.4493 16.166 22.374L18 21.1514L19.834 22.374C19.9469 22.4493 20.0782 22.4925 20.2138 22.499C20.3494 22.5056 20.4842 22.4752 20.6038 22.4112C20.7235 22.3471 20.8236 22.2518 20.8933 22.1354C20.9631 22.0189 21 21.8857 21 21.75V17.1328C21.62 16.4277 22 15.5071 22 14.5C22 12.2997 20.2003 10.5 18 10.5ZM18 12C19.3896 12 20.5 13.1104 20.5 14.5C20.5 15.8896 19.3896 17 18 17C16.6104 17 15.5 15.8896 15.5 14.5C15.5 13.1104 16.6104 12 18 12ZM6.75 13C6.65062 12.9986 6.55194 13.017 6.45972 13.054C6.36749 13.0911 6.28355 13.1461 6.21277 13.2159C6.142 13.2857 6.08579 13.3688 6.04743 13.4605C6.00907 13.5522 5.98932 13.6506 5.98932 13.75C5.98932 13.8494 6.00907 13.9478 6.04743 14.0395C6.08579 14.1312 6.142 14.2143 6.21277 14.2841C6.28355 14.3539 6.36749 14.4089 6.45972 14.446C6.55194 14.483 6.65062 14.5014 6.75 14.5H11.25C11.3494 14.5014 11.4481 14.483 11.5403 14.446C11.6325 14.4089 11.7164 14.3539 11.7872 14.2841C11.858 14.2143 11.9142 14.1312 11.9526 14.0395C11.9909 13.9478 12.0107 13.8494 12.0107 13.75C12.0107 13.6506 11.9909 13.5522 11.9526 13.4605C11.9142 13.3688 11.858 13.2857 11.7872 13.2159C11.7164 13.1461 11.6325 13.0911 11.5403 13.054C11.4481 13.017 11.3494 12.9986 11.25 13H6.75ZM16.5 18.2041C16.9639 18.3934 17.47 18.5 18 18.5C18.53 18.5 19.0361 18.3934 19.5 18.2041V20.3486L18.416 19.626C18.2928 19.5439 18.1481 19.5 18 19.5C17.8519 19.5 17.7072 19.5439 17.584 19.626L16.5 20.3486V18.2041Z" fill="#122B46"/>
</svg>
