<svg width="24" height="24" viewBox="0 0 24 24" fill="none" xmlns="http://www.w3.org/2000/svg">
<path d="M16.7422 2.49219C16.5929 2.49222 16.4471 2.53679 16.3233 2.62019C16.1995 2.70358 16.1034 2.82202 16.0473 2.96033C15.9912 3.09865 15.9776 3.25056 16.0084 3.39662C16.0391 3.54269 16.1127 3.67627 16.2197 3.78027L18.9395 6.5H3.25C3.15062 6.49859 3.05194 6.51696 2.95972 6.55402C2.86749 6.59108 2.78355 6.6461 2.71277 6.71588C2.642 6.78566 2.58579 6.86882 2.54743 6.96051C2.50907 7.0522 2.48932 7.15061 2.48932 7.25C2.48932 7.34939 2.50907 7.4478 2.54743 7.53949C2.58579 7.63118 2.642 7.71434 2.71277 7.78412C2.78355 7.8539 2.86749 7.90892 2.95972 7.94598C3.05194 7.98304 3.15062 8.00141 3.25 8H18.9395L16.2197 10.7197C16.1477 10.7888 16.0903 10.8716 16.0507 10.9632C16.0111 11.0548 15.9902 11.1534 15.9892 11.2532C15.9882 11.3529 16.0071 11.4519 16.0448 11.5443C16.0825 11.6367 16.1383 11.7206 16.2088 11.7912C16.2794 11.8617 16.3633 11.9175 16.4557 11.9552C16.5481 11.9929 16.6471 12.0118 16.7468 12.0108C16.8466 12.0098 16.9452 11.9889 17.0368 11.9493C17.1284 11.9097 17.2112 11.8523 17.2803 11.7803L21.2803 7.78027C21.4209 7.63962 21.4999 7.44888 21.4999 7.25C21.4999 7.05112 21.4209 6.86038 21.2803 6.71973L17.2803 2.71973C17.2104 2.64773 17.1267 2.5905 17.0343 2.55142C16.9419 2.51233 16.8425 2.49219 16.7422 2.49219ZM7.23535 11.9932C7.04057 11.9988 6.85565 12.0801 6.71973 12.2197L2.71973 16.2197C2.57913 16.3604 2.50014 16.5511 2.50014 16.75C2.50014 16.9489 2.57913 17.1396 2.71973 17.2803L6.71973 21.2803C6.78884 21.3523 6.87161 21.4097 6.96321 21.4493C7.05481 21.4889 7.15338 21.5098 7.25316 21.5108C7.35294 21.5118 7.45192 21.4929 7.5443 21.4552C7.63668 21.4175 7.72061 21.3617 7.79117 21.2912C7.86172 21.2206 7.9175 21.1367 7.95521 21.0443C7.99293 20.9519 8.01183 20.8529 8.01082 20.7532C8.00981 20.6534 7.98889 20.5548 7.9493 20.4632C7.90972 20.3716 7.85225 20.2888 7.78027 20.2197L5.06055 17.5H20.75C20.8494 17.5014 20.9481 17.483 21.0403 17.446C21.1325 17.4089 21.2164 17.3539 21.2872 17.2841C21.358 17.2143 21.4142 17.1312 21.4526 17.0395C21.4909 16.9478 21.5107 16.8494 21.5107 16.75C21.5107 16.6506 21.4909 16.5522 21.4526 16.4605C21.4142 16.3688 21.358 16.2857 21.2872 16.2159C21.2164 16.1461 21.1325 16.0911 21.0403 16.054C20.9481 16.017 20.8494 15.9986 20.75 16H5.06055L7.78027 13.2803C7.88847 13.1749 7.96234 13.0393 7.99221 12.8913C8.02208 12.7432 8.00655 12.5896 7.94767 12.4505C7.88878 12.3114 7.78928 12.1933 7.66219 12.1117C7.53509 12.0301 7.38633 11.9888 7.23535 11.9932Z" fill="#122B46"/>
</svg>
