<svg width="30" height="30" viewBox="0 0 30 30" fill="none" xmlns="http://www.w3.org/2000/svg">
<path d="M24.0375 5.9625C22.2081 4.1325 19.7756 3.125 17.1875 3.125C14.5994 3.125 12.1669 4.1325 10.3375 5.9625L7.68875 8.61125L4.18312 9.825C3.36312 10.1081 2.75812 10.7813 2.56312 11.6269C2.52125 11.81 2.5 11.9981 2.5 12.1875C2.5 12.8469 2.7675 13.4912 3.2325 13.955L16.0444 26.7669C16.5087 27.2325 17.1531 27.5 17.8125 27.5C18.0019 27.5 18.19 27.4787 18.3731 27.4362C19.2188 27.2412 19.8919 26.6362 20.1744 25.8169L21.3881 22.3113L24.0369 19.6625C25.8675 17.8331 26.875 15.4006 26.875 12.8125C26.875 10.2244 25.8675 7.79187 24.0375 5.9625ZM5.85688 18.3469C5.32188 19.045 5 19.9144 5 20.8594C5 23.1425 6.8575 25 9.14062 25C10.0856 25 10.955 24.6781 11.6531 24.1431L5.85688 18.3469Z" fill="#F7074F"/>
</svg>
