<svg width="24" height="24" viewBox="0 0 24 24" fill="none" xmlns="http://www.w3.org/2000/svg">
<path d="M9 3.5C4.31446 3.5 0.5 7.31446 0.5 12C0.5 16.6855 4.31446 20.5 9 20.5C9.51248 20.5 10.0122 20.4468 10.5 20.3594C10.9861 20.4467 11.4858 20.5 12 20.5C12.5127 20.5 13.012 20.4469 13.5 20.3594C13.9861 20.4467 14.4858 20.5 15 20.5C19.6854 20.5 23.5 16.6854 23.5 12C23.5 7.31463 19.6854 3.5 15 3.5C14.4858 3.5 13.9861 3.55327 13.5 3.64062C13.012 3.55313 12.5127 3.5 12 3.5C11.4858 3.5 10.9861 3.55327 10.5 3.64062C10.0122 3.55321 9.51248 3.5 9 3.5ZM9 5C9.43577 5 9.86001 5.04445 10.2734 5.12012C10.3291 5.13646 10.3864 5.14629 10.4443 5.14941C13.6225 5.8127 16 8.62073 16 12C16 15.3796 13.6219 18.1877 10.4434 18.8506C10.3848 18.8536 10.3268 18.8634 10.2705 18.8799C9.85797 18.9552 9.43478 19 9 19C5.12512 19 2 15.8749 2 12C2 8.12512 5.12512 5 9 5ZM14.3672 5.41699C17.0702 6.38546 19 8.95804 19 12C19 15.042 17.0702 17.6145 14.3672 18.583C16.2772 17.0228 17.5 14.6518 17.5 12C17.5 9.34817 16.2772 6.9772 14.3672 5.41699ZM17.3672 5.41699C20.0702 6.38546 22 8.95804 22 12C22 15.042 20.0702 17.6145 17.3672 18.583C19.2772 17.0228 20.5 14.6517 20.5 12C20.5 9.34826 19.2772 6.97723 17.3672 5.41699ZM9 6.5C8.62 6.5 8.31298 6.80848 8.31348 7.18848V7.89258C7.06798 7.98258 6.07812 9.01423 6.07812 10.2822C6.07812 11.6087 7.15788 12.6885 8.48438 12.6885H9.6875C10.256 12.6885 10.7188 13.1503 10.7188 13.7188C10.7188 14.2872 10.256 14.75 9.6875 14.75H8.33887C7.70037 14.75 7.3006 14.4852 7.0791 14.2637C6.8106 13.9952 6.37592 13.9952 6.10742 14.2637C5.83892 14.5322 5.83892 14.9678 6.10742 15.2363C6.67492 15.8038 7.4575 16.1156 8.3125 16.1221V16.8125C8.3125 17.192 8.62 17.5 9 17.5C9.38 17.5 9.6875 17.192 9.6875 16.8125V16.125C11.014 16.125 12.0928 15.0443 12.0928 13.7178C12.0928 12.3913 11.013 11.3115 9.68652 11.3115H8.48438C7.91587 11.3115 7.45312 10.8498 7.45312 10.2812C7.45312 9.71275 7.91587 9.25 8.48438 9.25H9.54102C10.1856 9.25 10.4821 9.6205 10.4854 9.62207V9.62305C10.6905 9.94151 11.1153 10.0315 11.4346 9.82715C11.7536 9.62115 11.8456 9.19595 11.6396 8.87695C11.4256 8.54595 10.7485 7.93877 9.6875 7.88477V7.1875C9.6875 6.808 9.38 6.5 9 6.5Z" fill="#122B46"/>
</svg>
