<svg width="24" height="24" viewBox="0 0 24 24" fill="none" xmlns="http://www.w3.org/2000/svg">
<g clip-path="url(#clip0_3_21242)">
<path d="M18.75 0.499999C18.6506 0.498593 18.5519 0.516954 18.4597 0.554014C18.3675 0.591075 18.2835 0.646095 18.2128 0.715879C18.142 0.785662 18.0858 0.868816 18.0474 0.960509C18.0091 1.0522 17.9893 1.1506 17.9893 1.25C17.9893 1.34939 18.0091 1.4478 18.0474 1.53949C18.0858 1.63118 18.142 1.71434 18.2128 1.78412C18.2835 1.8539 18.3675 1.90892 18.4597 1.94598C18.5519 1.98304 18.6506 2.0014 18.75 2H20.8896L17.9443 4.94433C17.9269 4.9611 17.9103 4.9787 17.8945 4.99707C16.8824 4.21861 15.6207 3.75 14.25 3.75C11.4412 3.75 9.0793 5.69914 8.43164 8.3125C5.51241 8.71441 3.25 11.2233 3.25 14.25C3.25 15.7474 3.80713 17.1159 4.71972 18.1689L3.52343 19.3652L2.3291 18.1709C2.25999 18.0989 2.17721 18.0415 2.08562 18.0019C1.99402 17.9623 1.89544 17.9414 1.79567 17.9403C1.69589 17.9393 1.59691 17.9582 1.50452 17.996C1.41214 18.0337 1.32821 18.0894 1.25766 18.16C1.1871 18.2306 1.13133 18.3145 1.09361 18.4069C1.05589 18.4993 1.03699 18.5982 1.038 18.698C1.03902 18.7978 1.05993 18.8964 1.09952 18.988C1.13911 19.0796 1.19657 19.1623 1.26855 19.2314L2.46289 20.4258L0.944331 21.9443C0.872353 22.0134 0.814887 22.0962 0.775299 22.1878C0.735712 22.2794 0.714798 22.378 0.713784 22.4778C0.712769 22.5775 0.731674 22.6765 0.769391 22.7689C0.807108 22.8613 0.862879 22.9452 0.933437 23.0158C1.004 23.0863 1.08792 23.1421 1.18031 23.1798C1.27269 23.2175 1.37167 23.2364 1.47145 23.2354C1.57123 23.2344 1.6698 23.2135 1.7614 23.1739C1.85299 23.1343 1.93577 23.0769 2.00488 23.0049L3.52343 21.4863L4.71875 22.6816C4.78785 22.7536 4.87063 22.8111 4.96223 22.8507C5.05382 22.8903 5.1524 22.9112 5.25218 22.9122C5.35196 22.9132 5.45094 22.8943 5.54332 22.8566C5.6357 22.8189 5.71963 22.7631 5.79019 22.6925C5.86075 22.622 5.91652 22.538 5.95424 22.4457C5.99195 22.3533 6.01086 22.2543 6.00984 22.1545C6.00883 22.0547 5.98792 21.9562 5.94833 21.8646C5.90874 21.773 5.85127 21.6902 5.77929 21.6211L4.58398 20.4258L5.83593 19.1748C6.80654 19.8503 7.98223 20.25 9.25 20.25C12.0588 20.25 14.4207 18.3009 15.0684 15.6875C17.9876 15.2856 20.25 12.7767 20.25 9.75C20.25 8.35357 19.765 7.06925 18.96 6.04785C18.9755 6.03415 18.9905 6.01982 19.0049 6.00488L22 3.01074V5.25C21.9986 5.34938 22.017 5.44805 22.054 5.54028C22.0911 5.63251 22.1461 5.71645 22.2159 5.78723C22.2857 5.858 22.3688 5.9142 22.4605 5.95257C22.5522 5.99093 22.6506 6.01068 22.75 6.01068C22.8494 6.01068 22.9478 5.99093 23.0395 5.95257C23.1312 5.9142 23.2143 5.858 23.2841 5.78723C23.3539 5.71645 23.4089 5.63251 23.446 5.54028C23.483 5.44805 23.5014 5.34938 23.5 5.25V1.25C23.5 1.05109 23.421 0.860339 23.2803 0.719691C23.1397 0.579043 22.9489 0.500019 22.75 0.499999H18.75ZM14.25 5.25C16.7442 5.25 18.75 7.25583 18.75 9.75C18.75 11.9018 17.2556 13.6873 15.2441 14.1377C15.188 11.1347 12.9107 8.66339 9.99023 8.30078C10.5909 6.52337 12.264 5.25 14.25 5.25ZM9.75195 9.7793C11.9981 10.0262 13.7333 11.9099 13.748 14.2207C11.5018 13.9738 9.7667 12.0901 9.75195 9.7793ZM8.25585 9.8623C8.312 12.8653 10.5893 15.3366 13.5098 15.6992C12.9091 17.4766 11.236 18.75 9.25 18.75C6.75583 18.75 4.75 16.7442 4.75 14.25C4.75 12.0982 6.24439 10.3127 8.25585 9.8623Z" fill="#122B46"/>
</g>
<defs>
<clipPath id="clip0_3_21242">
<rect width="24" height="24" fill="white"/>
</clipPath>
</defs>
</svg>
