<svg width="24" height="24" viewBox="0 0 24 24" fill="none" xmlns="http://www.w3.org/2000/svg">
<path d="M12 3.00488C11.4843 3.00488 10.9686 3.11758 10.4863 3.34277L1.4326 7.57031C1.30326 7.63068 1.19382 7.7267 1.11715 7.8471C1.04048 7.96749 0.999756 8.10726 0.999756 8.25C0.999756 8.39274 1.04048 8.53251 1.11715 8.6529C1.19382 8.7733 1.30326 8.86932 1.4326 8.92969L5.01365 10.6016C5.00418 10.6505 4.9996 10.7002 4.99998 10.75V17.2646C4.99998 18.3242 5.60572 19.3108 6.58396 19.7578C8.37954 20.5785 10.1558 21.0058 11.999 21C12.0003 21 12.0016 21 12.0029 21C12.03 21.0002 12.057 20.9989 12.084 20.9961C13.4177 20.982 14.7885 20.7424 16.1162 20.2891C15.7712 19.9226 15.5531 19.4407 15.5156 18.9072C14.3511 19.2917 13.1556 19.496 11.9971 19.5C10.3846 19.5056 8.84613 19.1423 7.20799 18.3936C6.77923 18.1976 6.49998 17.7521 6.49998 17.2646V11.2959L10.4863 13.1572C11.451 13.6076 12.549 13.6076 13.5137 13.1572L17 11.5293V17.752C16.7909 17.9096 16.6366 18.1289 16.5589 18.379C16.4812 18.6291 16.484 18.8972 16.5668 19.1456C16.6497 19.394 16.8085 19.6101 17.0208 19.7634C17.2331 19.9167 17.4881 19.9995 17.75 20C18.0121 19.9997 18.2675 19.9171 18.48 19.7637C18.6926 19.6104 18.8516 19.3941 18.9345 19.1454C19.0174 18.8968 19.0201 18.6284 18.9421 18.3781C18.8641 18.1279 18.7095 17.9085 18.5 17.751V10.918C18.5289 10.7308 18.486 10.5396 18.3799 10.3828C18.3682 10.3654 18.3558 10.3484 18.3428 10.332C18.2454 10.2057 18.1103 10.1137 17.957 10.0693C17.9564 10.069 17.9557 10.0687 17.9551 10.0684L12.5654 7.56934C12.4521 7.51476 12.3268 7.48957 12.2012 7.49609C12.0361 7.50461 11.8785 7.5674 11.7528 7.67471C11.6271 7.78202 11.5403 7.92785 11.506 8.08953C11.4717 8.25121 11.4918 8.41969 11.5631 8.56879C11.6344 8.7179 11.753 8.83927 11.9004 8.91406C11.9116 8.91988 11.923 8.92542 11.9346 8.93066L15.4902 10.5791L12.8789 11.7988C12.2886 12.0744 11.7114 12.0744 11.1211 11.7988L3.52244 8.25L11.1211 4.70215C11.7114 4.42654 12.2886 4.42654 12.8789 4.70215L20.4775 8.25L18.4512 9.19629L18.4863 9.21289C18.4868 9.21339 18.4882 9.21287 18.4892 9.21387C18.4902 9.21387 18.4907 9.21434 18.4912 9.21484C18.4922 9.21484 18.4936 9.2158 18.4951 9.2168C18.8876 9.4013 19.1802 9.71308 19.3457 10.0801C19.3892 10.1776 19.4237 10.2798 19.4492 10.3848L22.5674 8.92871C22.658 8.88664 22.7394 8.82688 22.8066 8.75293C22.8071 8.75239 22.8071 8.75151 22.8076 8.75098C22.8698 8.68149 22.9185 8.60101 22.9512 8.51367C22.953 8.50872 22.9552 8.50401 22.957 8.49902C22.9883 8.41004 23.0026 8.31595 22.999 8.22168C22.999 8.22035 22.9981 8.2191 22.998 8.21777C22.9964 8.17009 22.9901 8.12267 22.9795 8.07617C22.9791 8.0745 22.9779 8.07296 22.9775 8.07129C22.9666 8.02671 22.9515 7.98323 22.9326 7.94141C22.9313 7.93854 22.931 7.93548 22.9297 7.93262C22.9282 7.92952 22.9263 7.92689 22.9248 7.92383C22.9043 7.88091 22.8798 7.84003 22.8515 7.80176C22.8504 7.80026 22.8488 7.79934 22.8476 7.79785C22.8218 7.76355 22.793 7.73153 22.7617 7.70215C22.7542 7.69517 22.7469 7.68829 22.7392 7.68164C22.7107 7.65726 22.6803 7.63507 22.6484 7.61523C22.6394 7.60961 22.6303 7.60484 22.6211 7.59961C22.6036 7.58912 22.5857 7.57934 22.5674 7.57031L13.5137 3.34277C13.0313 3.11758 12.5157 3.00488 12 3.00488Z" fill="#122B46"/>
</svg>
