<svg width="24" height="24" viewBox="0 0 24 24" fill="none" xmlns="http://www.w3.org/2000/svg">
<path d="M10.75 3C9.79252 3 9 3.79252 9 4.75V7.25C9 8.20748 9.79252 9 10.75 9H11.25V11H6C5.04252 11 4.25 11.7925 4.25 12.75V15H3.75C2.79252 15 2 15.7925 2 16.75V19.25C2 20.2075 2.79252 21 3.75 21H6.25C7.20748 21 8 20.2075 8 19.25V16.75C8 15.7925 7.20748 15 6.25 15H5.75V12.75C5.75 12.6025 5.85248 12.5 6 12.5H11.25V15H10.75C9.79252 15 9 15.7925 9 16.75V19.25C9 20.2075 9.79252 21 10.75 21H13.25C14.2075 21 15 20.2075 15 19.25V16.75C15 15.7925 14.2075 15 13.25 15H12.75V12.5H18C18.1475 12.5 18.25 12.6025 18.25 12.75V15H17.75C16.7925 15 16 15.7925 16 16.75V19.25C16 20.2075 16.7925 21 17.75 21H20.25C21.2075 21 22 20.2075 22 19.25V16.75C22 15.7925 21.2075 15 20.25 15H19.75V12.75C19.75 11.7925 18.9575 11 18 11H12.75V9H13.25C14.2075 9 15 8.20748 15 7.25V4.75C15 3.79252 14.2075 3 13.25 3H10.75ZM10.75 4.5H13.25C13.3975 4.5 13.5 4.60248 13.5 4.75V7.25C13.5 7.39752 13.3975 7.5 13.25 7.5H12.123C12.0425 7.48677 11.9604 7.48677 11.8799 7.5H10.75C10.6025 7.5 10.5 7.39752 10.5 7.25V4.75C10.5 4.60248 10.6025 4.5 10.75 4.5ZM3.75 16.5H4.87695C4.95747 16.5132 5.0396 16.5132 5.12012 16.5H6.25C6.39752 16.5 6.5 16.6025 6.5 16.75V19.25C6.5 19.3975 6.39752 19.5 6.25 19.5H3.75C3.60248 19.5 3.5 19.3975 3.5 19.25V16.75C3.5 16.6025 3.60248 16.5 3.75 16.5ZM10.75 16.5H11.877C11.9575 16.5132 12.0396 16.5132 12.1201 16.5H13.25C13.3975 16.5 13.5 16.6025 13.5 16.75V19.25C13.5 19.3975 13.3975 19.5 13.25 19.5H10.75C10.6025 19.5 10.5 19.3975 10.5 19.25V16.75C10.5 16.6025 10.6025 16.5 10.75 16.5ZM17.75 16.5H18.877C18.9575 16.5132 19.0396 16.5132 19.1201 16.5H20.25C20.3975 16.5 20.5 16.6025 20.5 16.75V19.25C20.5 19.3975 20.3975 19.5 20.25 19.5H17.75C17.6025 19.5 17.5 19.3975 17.5 19.25V16.75C17.5 16.6025 17.6025 16.5 17.75 16.5Z" fill="#122B46"/>
</svg>
