<svg width="24" height="24" viewBox="0 0 24 24" fill="none" xmlns="http://www.w3.org/2000/svg">
<path d="M6.5 6C4.84759 6 3.42996 6.69244 2.47168 7.7959C1.5134 8.89936 1 10.3907 1 12C1 13.6093 1.5134 15.1006 2.47168 16.2041C3.42996 17.3076 4.84759 18 6.5 18C8.52885 18 10.044 16.4634 11.0723 15.0703C12.0615 13.73 12.6145 12.4602 12.6572 12.3613C12.669 12.3401 12.6798 12.3182 12.6895 12.2959C12.6895 12.2959 13.2255 11.0522 14.1348 9.82031C15.044 8.58842 16.2788 7.5 17.5 7.5C18.7471 7.5 19.7046 7.98263 20.3965 8.7793C21.0883 9.57596 21.5 10.7098 21.5 12C21.5 13.2902 21.0883 14.424 20.3965 15.2207C19.7046 16.0174 18.7471 16.5 17.5 16.5C15.841 16.5 14.3314 14.6255 13.4199 13.1035C13.2479 13.4635 12.9721 13.998 12.5996 14.6025C13.659 16.1645 15.3229 17.9468 17.4141 17.9951C17.4426 17.9984 17.4713 18 17.5 18C19.1524 18 20.57 17.3076 21.5283 16.2041C22.4866 15.1006 23 13.6093 23 12C23 10.3907 22.4866 8.89936 21.5283 7.7959C20.57 6.69244 19.1524 6 17.5 6C15.4712 6 13.956 7.53658 12.9277 8.92969C11.9385 10.27 11.3855 11.5398 11.3428 11.6387C11.331 11.6599 11.3202 11.6818 11.3105 11.7041C11.3105 11.7041 10.7745 12.9478 9.86523 14.1797C8.95598 15.4116 7.72115 16.5 6.5 16.5C5.25291 16.5 4.29536 16.0174 3.60352 15.2207C2.91167 14.424 2.5 13.2902 2.5 12C2.5 10.7098 2.91167 9.57596 3.60352 8.7793C4.29536 7.98263 5.25291 7.5 6.5 7.5C8.159 7.5 9.66858 9.37448 10.5801 10.8965C10.7521 10.5365 11.0279 10.002 11.4004 9.39746C10.341 7.83552 8.67712 6.05324 6.58594 6.00488C6.55741 6.00161 6.52872 5.99998 6.5 6Z" fill="#122B46"/>
</svg>
