<svg width="24" height="24" viewBox="0 0 24 24" fill="none" xmlns="http://www.w3.org/2000/svg">
<path d="M18.75 2.5C18.0625 2.5 17.4519 2.78482 17.0645 3.2207C16.8575 3.45358 16.715 3.72019 16.623 4H8.875C7.34055 4 5.98759 4.79842 5.20703 6.00195C4.53732 6.01369 3.94371 6.29404 3.56445 6.7207C3.177 7.15659 3 7.70833 3 8.25C3 8.79167 3.177 9.34341 3.56445 9.7793C3.91465 10.1733 4.44788 10.4418 5.05469 10.4902C5.80186 11.836 7.23386 12.75 8.875 12.75H15.125C16.002 12.75 16.7781 13.1424 17.3037 13.7559C17.2198 13.8241 17.1346 13.8918 17.0645 13.9707C16.677 14.4066 16.5 14.9583 16.5 15.5C16.5 16.0417 16.677 16.5934 17.0645 17.0293C17.1684 17.1462 17.2906 17.2502 17.4238 17.3428C16.901 18.0423 16.0719 18.5 15.125 18.5H7.37695C7.28499 18.2202 7.14255 17.9536 6.93555 17.7207C6.54809 17.2848 5.9375 17 5.25 17C4.5625 17 3.95191 17.2848 3.56445 17.7207C3.177 18.1566 3 18.7083 3 19.25C3 19.7917 3.177 20.3434 3.56445 20.7793C3.95191 21.2152 4.5625 21.5 5.25 21.5C5.9375 21.5 6.54809 21.2152 6.93555 20.7793C7.14255 20.5464 7.28499 20.2798 7.37695 20H15.125C16.7661 20 18.1987 19.0865 18.9463 17.7402C19.5527 17.6916 20.0855 17.4231 20.4355 17.0293C20.823 16.5934 21 16.0417 21 15.5C21 14.9583 20.823 14.4066 20.4355 13.9707C20.0563 13.544 19.4627 13.2637 18.793 13.252C18.0124 12.0484 16.6594 11.25 15.125 11.25H8.875C7.92817 11.25 7.0994 10.7926 6.57617 10.0928C6.70943 10.0002 6.83159 9.89625 6.93555 9.7793C7.323 9.34341 7.5 8.79167 7.5 8.25C7.5 7.70833 7.323 7.15659 6.93555 6.7207C6.86539 6.64177 6.78022 6.57409 6.69629 6.50586C7.22193 5.89245 7.99804 5.5 8.875 5.5H16.623C16.715 5.77981 16.8575 6.04642 17.0645 6.2793C17.4519 6.71518 18.0625 7 18.75 7C19.4375 7 20.0481 6.71518 20.4355 6.2793C20.823 5.84341 21 5.29167 21 4.75C21 4.20833 20.823 3.65659 20.4355 3.2207C20.0481 2.78482 19.4375 2.5 18.75 2.5ZM18.75 4C19.0625 4 19.2019 4.09018 19.3145 4.2168C19.427 4.34341 19.5 4.54167 19.5 4.75C19.5 4.95833 19.427 5.15659 19.3145 5.2832C19.2019 5.40982 19.0625 5.5 18.75 5.5C18.4375 5.5 18.2981 5.40982 18.1855 5.2832C18.0868 5.17211 18.0211 5.00502 18.0059 4.8252C18.0114 4.77458 18.0117 4.72353 18.0068 4.67285C18.0224 4.49381 18.0872 4.32748 18.1855 4.2168C18.2981 4.09018 18.4375 4 18.75 4ZM5.25 7.5C5.5625 7.5 5.70191 7.59018 5.81445 7.7168C5.927 7.84341 6 8.04167 6 8.25C6 8.45833 5.927 8.65659 5.81445 8.7832C5.70191 8.90982 5.5625 9 5.25 9C4.9375 9 4.79809 8.90982 4.68555 8.7832C4.573 8.65659 4.5 8.45833 4.5 8.25C4.5 8.04167 4.573 7.84341 4.68555 7.7168C4.79809 7.59018 4.9375 7.5 5.25 7.5ZM18.75 14.75C19.0625 14.75 19.2019 14.8402 19.3145 14.9668C19.427 15.0934 19.5 15.2917 19.5 15.5C19.5 15.7083 19.427 15.9066 19.3145 16.0332C19.2019 16.1598 19.0625 16.25 18.75 16.25C18.4375 16.25 18.2981 16.1598 18.1855 16.0332C18.073 15.9066 18 15.7083 18 15.5C18 15.2917 18.073 15.0934 18.1855 14.9668C18.2981 14.8402 18.4375 14.75 18.75 14.75ZM5.25 18.5C5.5625 18.5 5.70191 18.5902 5.81445 18.7168C5.91321 18.8279 5.97888 18.995 5.99414 19.1748C5.98865 19.2254 5.98832 19.2765 5.99316 19.3271C5.97756 19.5062 5.91283 19.6725 5.81445 19.7832C5.70191 19.9098 5.5625 20 5.25 20C4.9375 20 4.79809 19.9098 4.68555 19.7832C4.573 19.6566 4.5 19.4583 4.5 19.25C4.5 19.0417 4.573 18.8434 4.68555 18.7168C4.79809 18.5902 4.9375 18.5 5.25 18.5Z" fill="#122B46"/>
</svg>
