<svg width="24" height="24" viewBox="0 0 24 24" fill="none" xmlns="http://www.w3.org/2000/svg">
<path d="M8.88965 3.45117C6.06067 3.42371 6.5 6.5 6.5 6.5C10 7 9.5 3.5 9.5 3.5C9.28125 3.46875 9.07825 3.453 8.88965 3.45117ZM15.6104 3.45117C15.4218 3.453 15.2188 3.46875 15 3.5C15 3.5 14.5 7 18 6.5C18 6.5 18.4393 3.42371 15.6104 3.45117ZM3.46875 5.52344C3.46875 5.52344 1.31079 8.82853 5.19629 10.207C8.38879 11.726 9.29395 8.17676 9.29395 8.17676C7.24454 7.00003 6.18492 7.95655 5.66113 8.91602C5.87011 7.8258 5.68382 6.32055 3.46875 5.52344ZM20.8115 5.52344C18.5965 6.32055 18.4102 7.8258 18.6191 8.91602C18.0955 7.95655 17.036 7.00003 14.9863 8.17676C14.9863 8.17676 15.8915 11.726 19.084 10.207C22.9695 8.82853 20.8115 5.52344 20.8115 5.52344ZM8.5 11.5C5.84092 11.6722 5.53968 13.1887 5.62012 14.168C5.32083 13.0838 4.43396 11.3942 1.75 12.0527C1.75 12.0527 1.78027 16 5.78027 15C9.28027 14.5 8.5 11.5 8.5 11.5ZM16 11.5C16 11.5 15 14.5 18.5 15C22.5 16 22.5303 12.0527 22.5303 12.0527C20.1006 11.4566 19.1357 12.7931 18.752 13.8564C18.7949 12.8951 18.3805 11.6542 16 11.5ZM9.71582 14.6006C7.42939 14.6909 6.88041 15.9715 6.82129 17.0352C6.76726 17.0398 6.71388 17.0503 6.66211 17.0664C5.88259 16.3629 4.62334 15.8755 2.94434 17.3438C2.94434 17.3438 4.51178 19.9049 6.81836 18.7686C7.45005 19.3167 8.25034 19.7538 9.1084 20.0801C7.98762 20.6032 7.28223 21.1641 7.28223 21.1641C7.20202 21.2244 7.13472 21.3001 7.08432 21.3869C7.03393 21.4737 7.00145 21.5697 6.98881 21.6692C6.97618 21.7687 6.98365 21.8698 7.01077 21.9664C7.0379 22.063 7.08413 22.1532 7.14673 22.2316C7.20934 22.31 7.28704 22.3751 7.37523 22.4229C7.46343 22.4708 7.56033 22.5005 7.6602 22.5102C7.76007 22.5199 7.86087 22.5095 7.95665 22.4796C8.05242 22.4496 8.14121 22.4008 8.21777 22.3359C8.21777 22.3359 9.9534 20.985 12.1406 20.7402C14.3274 20.9853 16.0625 22.3359 16.0625 22.3359C16.1394 22.3981 16.2278 22.4445 16.3226 22.4724C16.4175 22.5003 16.517 22.5092 16.6153 22.4985C16.7136 22.4879 16.8088 22.4579 16.8955 22.4102C16.9821 22.3626 17.0585 22.2984 17.1203 22.2211C17.182 22.1439 17.2278 22.0552 17.2552 21.9601C17.2825 21.8651 17.2908 21.7656 17.2795 21.6674C17.2682 21.5691 17.2377 21.4741 17.1895 21.3877C17.1414 21.3013 17.0766 21.2253 16.999 21.1641C16.999 21.1641 16.2936 20.6032 15.1729 20.0801C16.0309 19.7538 16.8312 19.3167 17.4629 18.7686C19.7693 19.9044 21.3369 17.3438 21.3369 17.3438C19.6576 15.8755 18.3976 16.3629 17.6182 17.0664C17.5664 17.0503 17.513 17.0398 17.459 17.0352C17.3998 15.9715 16.8516 14.6909 14.5654 14.6006C14.5654 14.6006 14.0432 17.0552 15.8252 18.0596C14.8222 18.6467 13.4154 19.1337 12.2588 19.2197C12.2187 19.2227 12.1804 19.2289 12.1406 19.2324C12.1008 19.2289 12.0625 19.2227 12.0225 19.2197C10.8658 19.1337 9.4584 18.6467 8.45508 18.0596C10.2371 17.0552 9.71582 14.6006 9.71582 14.6006Z" fill="#122B46"/>
</svg>
