<svg width="24" height="24" viewBox="0 0 24 24" fill="none" xmlns="http://www.w3.org/2000/svg">
<path d="M12.8105 2.99316C12.6158 2.99884 12.4308 3.0801 12.2949 3.21973L12.0244 3.48926C11.9602 3.53605 11.9038 3.59275 11.8574 3.65723L8.48925 7.02442C8.42512 7.07091 8.36875 7.12727 8.32226 7.19141L8.05175 7.46192C7.92403 7.58669 7.84502 7.75294 7.82891 7.93076C7.8128 8.10858 7.86065 8.28632 7.96386 8.43202C8.06708 8.57772 8.21888 8.68182 8.39198 8.7256C8.56508 8.76939 8.74812 8.74999 8.9082 8.6709L10.083 9.8457C10.1321 9.91461 10.1925 9.9747 10.2617 10.0234L11.0732 10.8359C7.88356 13.5498 4.90951 16.1227 3.61523 17.417C2.80176 18.2305 2.80176 19.5723 3.61523 20.3857C4.42869 21.1992 5.77051 21.1992 6.58398 20.3857C7.87492 19.0948 10.4567 16.1044 13.1621 12.9248L13.9726 13.7354C14.0217 13.8046 14.0821 13.865 14.1514 13.9141L15.3291 15.0918C15.25 15.2519 15.2306 15.4349 15.2744 15.608C15.3182 15.7811 15.4223 15.9329 15.568 16.0361C15.7137 16.1393 15.8914 16.1872 16.0692 16.1711C16.2471 16.155 16.4133 16.076 16.5381 15.9482L16.8115 15.6748C16.8735 15.6294 16.9282 15.5747 16.9736 15.5127L20.3408 12.1445C20.4071 12.097 20.4651 12.0389 20.5127 11.9727L20.7803 11.7051C20.9075 11.5803 20.9862 11.4142 21.0022 11.2367C21.0181 11.0592 20.9704 10.8818 20.8674 10.7363C20.7644 10.5908 20.613 10.4867 20.4403 10.4427C20.2676 10.3987 20.0848 10.4176 19.9248 10.4961L18.7451 9.31641C18.6978 9.25058 18.64 9.19286 18.5742 9.14551L14.8564 5.42774C14.8089 5.36148 14.7508 5.30343 14.6846 5.25586L13.5039 4.0752C13.5612 3.95925 13.5875 3.83047 13.5803 3.70135C13.5732 3.57222 13.5327 3.44715 13.463 3.33826C13.3932 3.22938 13.2964 3.14038 13.1821 3.07992C13.0678 3.01945 12.9398 2.98956 12.8105 2.99316ZM12.4717 5.16406L13.1787 5.8711L10.7041 8.3457L9.99706 7.63867L12.4717 5.16406ZM14.2392 6.93164L17.0684 9.76074L14.5937 12.2354L13.7402 11.3818C13.6939 11.3181 13.6379 11.2621 13.5742 11.2158L11.7646 9.40625L14.2392 6.93164ZM18.1289 10.8213L18.8359 11.5283L16.3613 14.0029L15.6543 13.2959L18.1289 10.8213ZM11.831 12.167C9.22192 15.2277 6.67666 18.171 5.52343 19.3242C5.28289 19.5648 4.91631 19.5648 4.67577 19.3242C4.43524 19.0837 4.43524 18.7181 4.67577 18.4775C5.83208 17.3212 8.7608 14.784 11.831 12.167ZM12.25 19.5C12.1506 19.4986 12.0519 19.517 11.9597 19.554C11.8675 19.5911 11.7835 19.6461 11.7128 19.7159C11.642 19.7857 11.5858 19.8688 11.5474 19.9605C11.5091 20.0522 11.4893 20.1506 11.4893 20.25C11.4893 20.3494 11.5091 20.4478 11.5474 20.5395C11.5858 20.6312 11.642 20.7143 11.7128 20.7841C11.7835 20.8539 11.8675 20.9089 11.9597 20.946C12.0519 20.983 12.1506 21.0014 12.25 21H20.25C20.3494 21.0014 20.448 20.983 20.5403 20.946C20.6325 20.9089 20.7164 20.8539 20.7872 20.7841C20.858 20.7143 20.9142 20.6312 20.9526 20.5395C20.9909 20.4478 21.0107 20.3494 21.0107 20.25C21.0107 20.1506 20.9909 20.0522 20.9526 19.9605C20.9142 19.8688 20.858 19.7857 20.7872 19.7159C20.7164 19.6461 20.6325 19.5911 20.5403 19.554C20.448 19.517 20.3494 19.4986 20.25 19.5H12.25Z" fill="#122B46"/>
</svg>
