<svg width="100" height="100" viewBox="0 0 100 100" fill="none" xmlns="http://www.w3.org/2000/svg">
<g id="Foreground">
<path id="Vector" d="M0 0H100V100H0V0Z" fill="white"/>
<path id="Vector_2" d="M49.8372 95.3382C74.6987 95.3382 94.853 75.0506 94.853 50.0245C94.853 24.9984 74.6987 4.71078 49.8372 4.71078C24.9756 4.71078 4.82138 24.9984 4.82138 50.0245C4.82138 75.0506 24.9756 95.3382 49.8372 95.3382Z" stroke="#231F20" stroke-width="2" stroke-miterlimit="3.86"/>
<path id="Vector_3" d="M25.1519 66.5686C24.5837 66.5756 24.0247 66.7151 23.5188 66.9762C23.013 67.2373 22.5738 67.6128 22.2357 68.0735V66.6667H20.9283V78.348H22.2357V73.2108C22.5738 73.6715 23.013 74.047 23.5188 74.3081C24.0247 74.5692 24.5837 74.7087 25.1519 74.7157C26.1746 74.6441 27.1324 74.1838 27.8318 73.4277C28.5312 72.6717 28.9201 71.6762 28.9201 70.6421C28.9201 69.6081 28.5312 68.6126 27.8318 67.8566C27.1324 67.1005 26.1746 66.6402 25.1519 66.5686ZM24.904 73.5588C24.3189 73.6121 23.7315 73.486 23.2188 73.1969C22.706 72.9078 22.2917 72.4693 22.0302 71.9387C21.7688 71.4082 21.6722 70.8103 21.7533 70.2235C21.8345 69.6367 22.0894 69.0882 22.4848 68.65C22.8802 68.2118 23.3975 67.9043 23.9692 67.7677C24.5408 67.631 25.14 67.6717 25.6883 67.8844C26.2366 68.0971 26.7084 68.4718 27.042 68.9595C27.3756 69.4472 27.5553 70.0252 27.5577 70.6176C27.5753 70.9882 27.52 71.3586 27.3949 71.7074C27.2698 72.0563 27.0774 72.3767 26.8289 72.6501C26.5804 72.9236 26.2806 73.1447 25.9469 73.3006C25.6132 73.4566 25.2521 73.5444 24.8846 73.5588H24.904Z" fill="#231F20"/>
<path id="Vector_4" d="M55.2369 66.6667V68.0588C54.8989 67.5981 54.4597 67.2226 53.9538 66.9615C53.4479 66.7004 52.889 66.5609 52.3208 66.5539C51.298 66.6255 50.3403 67.0858 49.6409 67.8419C48.9415 68.5979 48.5526 69.5934 48.5526 70.6275C48.5526 71.6615 48.9415 72.657 49.6409 73.413C50.3403 74.1691 51.298 74.6294 52.3208 74.701C52.889 74.694 53.4479 74.5545 53.9538 74.2934C54.4597 74.0323 54.8989 73.6568 55.2369 73.1961V74.6373H56.5443V66.6667H55.2369ZM52.5589 73.5294C51.974 73.5817 51.387 73.4547 50.8748 73.1649C50.3626 72.8752 49.949 72.4362 49.6883 71.9055C49.4276 71.3747 49.3318 70.777 49.4136 70.1905C49.4953 69.6039 49.7507 69.0559 50.1463 68.6182C50.542 68.1805 51.0594 67.8735 51.631 67.7373C52.2025 67.6012 52.8015 67.6422 53.3495 67.8551C53.8975 68.068 54.369 68.4428 54.7023 68.9305C55.0356 69.4181 55.2152 69.9959 55.2175 70.5882C55.2398 70.9601 55.1883 71.3328 55.0662 71.6844C54.9441 72.036 54.7537 72.3595 54.5062 72.6361C54.2587 72.9127 53.959 73.1367 53.6246 73.2951C53.2903 73.4536 52.928 73.5432 52.5589 73.5588V73.5294Z" fill="#231F20"/>
<path id="Vector_5" d="M37.6768 71.1177H31.4216C31.4216 71.1177 31.4216 73.603 33.7886 73.603C35.8347 73.603 36.1409 72.1324 36.1409 72.1324H37.565C37.565 72.1324 37.0401 74.701 33.9295 74.701C32.9398 74.7291 31.9786 74.3652 31.2518 73.6871C30.525 73.0091 30.0905 72.0708 30.0413 71.0735C30.0413 70.2451 29.9878 66.5686 33.8663 66.5686C38.0316 66.5686 37.6671 70.8186 37.6671 70.8186L37.6768 71.1177ZM33.9295 67.6863C31.616 67.6863 31.4119 70.0392 31.4119 70.0392H36.3305C36.3356 69.7238 36.2763 69.4107 36.1563 69.1195C36.0363 68.8282 35.8582 68.5649 35.633 68.3461C35.4078 68.1272 35.1403 67.9574 34.8472 67.8473C34.5542 67.7372 34.2418 67.689 33.9295 67.7059V67.6863Z" fill="#231F20"/>
<path id="Vector_6" d="M46.9064 74.3284V66.6667H45.599V68.0588C45.261 67.5981 44.8218 67.2226 44.3159 66.9615C43.81 66.7004 43.2511 66.5609 42.6829 66.5539C41.6601 66.6255 40.7024 67.0858 40.003 67.8419C39.3036 68.5979 38.9146 69.5934 38.9146 70.6275C38.9146 71.6615 39.3036 72.657 40.003 73.413C40.7024 74.1691 41.6601 74.6294 42.6829 74.701C43.2511 74.694 43.81 74.5545 44.3159 74.2934C44.8218 74.0323 45.261 73.6568 45.599 73.1961V74.6667C45.599 74.6667 45.6622 77.3137 43.2369 77.3137C42.697 77.3563 42.1575 77.2274 41.6938 76.9453C41.2302 76.6631 40.8656 76.2418 40.6513 75.7402H39.3439C39.3439 75.7402 39.4945 78.4804 43.1835 78.4804C47.2807 78.5098 46.9064 74.3284 46.9064 74.3284ZM42.921 73.5588C42.336 73.6111 41.749 73.4841 41.2369 73.1943C40.7247 72.9046 40.3111 72.4656 40.0504 71.9349C39.7897 71.4042 39.6939 70.8064 39.7756 70.2199C39.8574 69.6333 40.1128 69.0853 40.5084 68.6476C40.9041 68.2099 41.4215 67.9029 41.9931 67.7667C42.5646 67.6306 43.1636 67.6716 43.7116 67.8845C44.2596 68.0974 44.7311 68.4722 45.0644 68.9599C45.3977 69.4475 45.5773 70.0253 45.5796 70.6176C45.5972 70.987 45.5424 71.3562 45.4182 71.7041C45.294 72.052 45.1029 72.3718 44.8559 72.6451C44.6089 72.9183 44.3108 73.1397 43.9788 73.2965C43.6468 73.4533 43.2873 73.5425 42.921 73.5588Z" fill="#231F20"/>
<path id="Vector_7" d="M64.2819 69.0686H62.9502C62.9502 69.0686 62.9502 67.7157 61.2442 67.7157C59.5383 67.7157 59.757 68.9804 59.757 68.9804C59.757 68.9804 59.6987 69.6324 61.2151 70.0049C62.7315 70.3774 64.2965 70.7941 64.2965 72.402C64.2965 74.0098 63.0571 74.7451 61.3803 74.7451C59.7035 74.7451 58.2892 73.7255 58.2892 72.2941H59.6598C59.6598 72.2941 59.7035 73.6176 61.4095 73.6176C62.8676 73.6176 63.0231 72.8235 63.0328 72.5932C63.0328 72.5932 63.1981 71.6618 61.9101 71.3873C60.9805 71.2341 60.0863 70.9118 59.271 70.4363C58.9899 70.2479 58.7638 69.9874 58.616 69.6814C58.4682 69.3755 58.404 69.0354 58.4301 68.6961C58.4301 67.4069 59.7618 66.5588 61.3706 66.5588C62.9793 66.5588 64.1118 67.5686 64.2479 68.5686L64.2819 69.0686Z" fill="#231F20"/>
<path id="Vector_8" d="M80.8894 69.0686H79.5577C79.5577 69.0686 79.5577 67.7157 77.8469 67.7157C76.1361 67.7157 76.3645 68.9804 76.3645 68.9804C76.3645 68.9804 76.3013 69.6324 77.8226 70.0049C79.3439 70.3774 80.904 70.7941 80.904 72.402C80.904 74.0098 79.6646 74.7451 77.9879 74.7451C76.3111 74.7451 74.8967 73.7255 74.8967 72.2941H76.2576C76.2576 72.2941 76.2965 73.6176 78.0073 73.6176C79.4654 73.6176 79.616 72.8235 79.6306 72.5932C79.6306 72.5932 79.7959 71.6618 78.5079 71.3873C77.5784 71.2341 76.6841 70.9118 75.8688 70.4363C75.5877 70.2479 75.3616 69.9874 75.2138 69.6814C75.066 69.3755 75.0019 69.0354 75.028 68.6961C75.028 67.4069 76.3597 66.5588 77.9684 66.5588C79.5772 66.5588 80.7096 67.5686 80.8457 68.5686L80.8894 69.0686Z" fill="#231F20"/>
<path id="Vector_9" d="M71.7764 66.6667V71.5686C71.7473 71.9412 71.4945 73.5294 69.3123 73.5294C69.3123 73.5294 67.4168 73.598 67.4168 71.451V66.7157H66.0705V71.3628C66.0705 71.3628 66.0122 74.7157 69.079 74.7157C69.5948 74.7509 70.1113 74.6565 70.5821 74.4409C71.0528 74.2253 71.4632 73.8953 71.7764 73.4804V74.652H73.0838V66.6667H71.7764Z" fill="#231F20"/>
<path id="Vector_10" d="M39.4265 35.2451C39.415 32.9712 38.7359 30.7517 37.4749 28.8667C36.214 26.9817 34.4277 25.5156 32.3415 24.6535C30.2552 23.7913 27.9625 23.5718 25.7527 24.0225C23.5429 24.4732 21.5149 25.574 19.9247 27.186C18.3346 28.798 17.2535 30.849 16.8179 33.08C16.3822 35.3111 16.6116 37.6223 17.477 39.722C18.3425 41.8217 19.8052 43.6158 21.6806 44.878C23.556 46.1401 25.76 46.8137 28.0146 46.8137H28.2819L28.243 41.0539H28.034C26.9071 41.0529 25.8057 40.7151 24.869 40.0832C23.9323 39.4512 23.2023 38.5534 22.7713 37.5032C22.3403 36.453 22.2275 35.2975 22.4472 34.1827C22.667 33.0679 23.2094 32.0438 24.0059 31.2398C24.8024 30.4357 25.8174 29.8878 26.9225 29.6652C28.0276 29.4427 29.1734 29.5554 30.215 29.9893C31.2566 30.4231 32.1474 31.1586 32.7748 32.1028C33.4022 33.047 33.7381 34.1575 33.74 35.2941V64.2157H39.4945V46.0245H69.0109V64.2794H74.9113V40.2598H56.4423C56.4423 40.2598 58.7072 31.25 76.7485 28.5833L75.9417 21.7794C75.9417 21.7794 65.9781 22.8382 58.1385 28.152C49.8809 33.7206 49.4532 40.2353 49.4532 40.2353L39.5334 40.299L39.4265 35.2451Z" fill="#231F20"/>
</g>
</svg>
