<svg width="24" height="24" viewBox="0 0 24 24" fill="none" xmlns="http://www.w3.org/2000/svg">
<path d="M4.25 4.5C2.46403 4.5 1 5.96403 1 7.75V16.25C1 18.036 2.46403 19.5 4.25 19.5H19.75C21.536 19.5 23 18.036 23 16.25V7.75C23 5.96403 21.536 4.5 19.75 4.5H4.25ZM4.25 6H19.75C20.725 6 21.5 6.77497 21.5 7.75V8.5H2.5V7.75C2.5 6.77497 3.27497 6 4.25 6ZM2.5 10.5H21.5V16.25C21.5 17.225 20.725 18 19.75 18H4.25C3.27497 18 2.5 17.225 2.5 16.25V10.5ZM15.75 14.5C15.6506 14.4986 15.5519 14.517 15.4597 14.554C15.3675 14.5911 15.2836 14.6461 15.2128 14.7159C15.142 14.7857 15.0858 14.8688 15.0474 14.9605C15.0091 15.0522 14.9893 15.1506 14.9893 15.25C14.9893 15.3494 15.0091 15.4478 15.0474 15.5395C15.0858 15.6312 15.142 15.7143 15.2128 15.7841C15.2836 15.8539 15.3675 15.9089 15.4597 15.946C15.5519 15.983 15.6506 16.0014 15.75 16H18.75C18.8494 16.0014 18.9481 15.983 19.0403 15.946C19.1325 15.9089 19.2164 15.8539 19.2872 15.7841C19.358 15.7143 19.4142 15.6312 19.4526 15.5395C19.4909 15.4478 19.5107 15.3494 19.5107 15.25C19.5107 15.1506 19.4909 15.0522 19.4526 14.9605C19.4142 14.8688 19.358 14.7857 19.2872 14.7159C19.2164 14.6461 19.1325 14.5911 19.0403 14.554C18.9481 14.517 18.8494 14.4986 18.75 14.5H15.75Z" fill="#122B46"/>
</svg>
