<svg width="24" height="24" viewBox="0 0 24 24" fill="none" xmlns="http://www.w3.org/2000/svg">
<path d="M7.25002 2C6.56822 2 6.00002 2.5682 6.00002 3.25V4.66992C6.00002 5.29703 6.33765 5.87848 6.88185 6.18945L11.25 8.68555V8.95215C11.096 9.07165 10.9467 9.20553 10.8565 9.4082L10.8692 9.38086L9.39748 12.3594L6.06349 12.8506C6.05107 12.8526 6.0387 12.8548 6.02639 12.8574C5.63975 12.9344 5.21046 13.2627 5.0801 13.7393C4.91997 14.2293 5.08824 14.7054 5.36818 14.9854C5.37205 14.9893 5.37595 14.9932 5.3799 14.9971L7.79592 17.3076L7.23635 20.5586L7.24025 20.54C7.14902 20.9985 7.32561 21.513 7.79396 21.7822C8.1808 22.03 8.66287 22.0262 8.99904 21.8916C9.02132 21.8826 9.04316 21.8725 9.06447 21.8613L12.0508 20.3154L15.0371 21.8613C15.0407 21.8633 15.0443 21.8653 15.0479 21.8672C15.3048 21.9948 15.5392 21.9844 15.6172 21.9844C15.9007 21.9844 16.0981 21.8913 16.1699 21.8672C16.2453 21.8418 16.3162 21.8045 16.3799 21.7568C16.7618 21.471 16.9851 21.0307 16.8545 20.5049L16.8653 20.5586L16.3067 17.3066L18.7217 14.9961C18.8079 14.9137 18.8731 14.8119 18.9121 14.6992C18.988 14.4792 19.0749 14.1026 18.9004 13.667C18.7325 13.2476 18.3791 12.9611 17.9932 12.8652C17.9697 12.8592 17.9459 12.8543 17.9219 12.8506L14.5879 12.3594L13.1162 9.38086L13.1289 9.4082C13.0418 9.21256 12.8971 9.08591 12.75 8.96777V8.68555L17.1182 6.18945C17.6624 5.87848 18 5.29703 18 4.66992V3.25C18 2.5682 17.4318 2 16.75 2H7.25002ZM7.50002 3.5H16.5V4.66992C16.5 4.76082 16.4528 4.84169 16.374 4.88672L12 7.38574L7.62599 4.88672C7.5472 4.84169 7.50002 4.76082 7.50002 4.66992V3.5ZM11.9854 10.5098C11.9906 10.5101 11.9958 10.5105 12.001 10.5107L13.417 13.377C13.4709 13.4856 13.5502 13.5796 13.6484 13.6509C13.7465 13.7222 13.8605 13.7686 13.9805 13.7861L17.3047 14.2764L14.9815 16.499C14.8927 16.5839 14.8262 16.6893 14.7877 16.806C14.7492 16.9226 14.74 17.0469 14.7608 17.168L15.3008 20.3086L12.3955 18.8047C12.289 18.7496 12.1708 18.7208 12.0508 18.7208C11.9308 18.7208 11.8126 18.7496 11.7061 18.8047L8.80178 20.3086L9.34181 17.1689C9.36261 17.0479 9.35336 16.9236 9.31488 16.807C9.27639 16.6903 9.20986 16.5849 9.12111 16.5L6.78127 14.2617L10.0049 13.7861C10.1249 13.7686 10.2389 13.7222 10.337 13.6509C10.4351 13.5796 10.5145 13.4856 10.5684 13.377L11.9854 10.5098Z" fill="#122B46"/>
</svg>
