<svg width="30" height="30" viewBox="0 0 30 30" fill="none" xmlns="http://www.w3.org/2000/svg">
<path d="M12.1179 3.12623C11.7336 3.12844 11.3439 3.1531 10.9509 3.20191C6.68568 3.73143 3.23409 7.10467 2.60742 11.3574C2.30119 13.4366 2.72401 15.397 3.57177 17.0972L2.52685 21.3379C2.48817 21.4946 2.49057 21.6585 2.53383 21.814C2.57709 21.9695 2.65973 22.1111 2.77377 22.2253C2.88781 22.3394 3.02938 22.4222 3.18479 22.4657C3.3402 22.5091 3.50418 22.5117 3.66088 22.4732L7.90527 21.4295C9.60561 22.2766 11.5666 22.6982 13.645 22.3914C17.8964 21.764 21.2686 18.3137 21.7981 14.0491C22.4821 8.54723 18.4786 3.77085 13.2544 3.18605C12.8812 3.14427 12.5022 3.12402 12.1179 3.12623ZM23.1189 9.06861C23.6876 10.7186 23.8747 12.4998 23.656 14.281C23.0247 19.3935 19.0184 23.4932 13.9185 24.2432C13.3435 24.3307 12.7625 24.375 12.1875 24.375C11.8812 24.375 11.5684 24.3623 11.2622 24.3311C12.6435 25.6061 14.4124 26.4751 16.3562 26.7688C18.3812 27.0626 20.3937 26.744 22.1875 25.8252L26.3379 26.8506C26.4129 26.8693 26.4875 26.875 26.5625 26.875C26.8062 26.875 27.0503 26.7816 27.2253 26.6004C27.4566 26.3691 27.5506 26.0317 27.4756 25.7129L26.4502 21.5625C27.3689 19.7688 27.6938 17.7625 27.3938 15.7312C26.9813 12.9437 25.3751 10.5499 23.1189 9.06861ZM8.43749 9.99879H16.5625C17.0806 9.99879 17.5 10.4188 17.5 10.9363C17.5 11.4538 17.0806 11.8738 16.5625 11.8738H8.43749C7.91937 11.8738 7.49999 11.4538 7.49999 10.9363C7.49999 10.4188 7.91937 9.99879 8.43749 9.99879ZM8.43749 14.3738H14.0625C14.5806 14.3738 15 14.7938 15 15.3113C15 15.8288 14.5806 16.2488 14.0625 16.2488H8.43749C7.91937 16.2488 7.49999 15.8288 7.49999 15.3113C7.49999 14.7938 7.91937 14.3738 8.43749 14.3738Z" fill="#F7074F"/>
</svg>
