<svg width="24" height="24" viewBox="0 0 24 24" fill="none" xmlns="http://www.w3.org/2000/svg">
<path d="M5.5 3C4.72917 3 4.05607 3.31607 3.62695 3.79883C3.19783 4.28159 3 4.89583 3 5.5C3 6.10417 3.19783 6.71841 3.62695 7.20117C4.05607 7.68393 4.72917 8 5.5 8C5.92877 8 6.31215 7.88563 6.65527 7.71582L7.74707 8.80762C7.31347 9.44686 7 10.1736 7 11C7 11.8846 7.347 12.663 7.83789 13.3271L6.57227 14.7246C6.25172 14.5827 5.8892 14.5 5.5 14.5C4.72917 14.5 4.05607 14.8161 3.62695 15.2988C3.19783 15.7816 3 16.3958 3 17C3 17.6042 3.19783 18.2184 3.62695 18.7012C4.05607 19.1839 4.72917 19.5 5.5 19.5C6.27083 19.5 6.94393 19.1839 7.37305 18.7012C7.80217 18.2184 8 17.6042 8 17C8 16.5722 7.86062 16.1563 7.65039 15.7686L8.94141 14.3438C9.55251 14.7232 10.2316 15 11 15C11.2417 15 11.4525 14.9029 11.6826 14.8613L12.4336 16.5781C12.3356 16.6567 12.2084 16.7072 12.127 16.7988C11.6978 17.2816 11.5 17.8958 11.5 18.5C11.5 19.1042 11.6978 19.7184 12.127 20.2012C12.5561 20.6839 13.2292 21 14 21C14.7708 21 15.4439 20.6839 15.873 20.2012C16.3022 19.7184 16.5 19.1042 16.5 18.5C16.5 17.8958 16.3022 17.2816 15.873 16.7988C15.4439 16.3161 14.7708 16 14 16C13.9399 16 13.8928 16.0304 13.834 16.0342L13.0859 14.3242C13.6137 13.9904 14.0444 13.5561 14.3682 13.0215L16.0117 13.4316C16.0111 13.4547 16 13.477 16 13.5C16 14.1042 16.1978 14.7184 16.627 15.2012C17.0561 15.6839 17.7292 16 18.5 16C19.2708 16 19.9439 15.6839 20.373 15.2012C20.8022 14.7184 21 14.1042 21 13.5C21 12.8958 20.8022 12.2816 20.373 11.7988C19.9439 11.3161 19.2708 11 18.5 11C17.7292 11 17.0561 11.3161 16.627 11.7988C16.5709 11.8618 16.5511 11.9416 16.5029 12.0088L14.8779 11.6025C14.9105 11.398 15 11.2133 15 11C15 10.395 14.8417 9.83469 14.5986 9.31934L16.5674 7.89453C17.0214 8.24417 17.5779 8.5 18.25 8.5C19.1042 8.5 19.8398 8.15268 20.3105 7.62305C20.7813 7.09341 21 6.41667 21 5.75C21 5.08333 20.7813 4.40659 20.3105 3.87695C19.8398 3.34732 19.1042 3 18.25 3C17.3958 3 16.6602 3.34732 16.1895 3.87695C15.7187 4.40659 15.5 5.08333 15.5 5.75C15.5 6.06983 15.5568 6.39108 15.6611 6.69824L13.7207 8.10449C13.0041 7.4312 12.055 7 11 7C10.1736 7 9.44686 7.31347 8.80762 7.74707L7.70312 6.64258C7.88101 6.27893 8 5.89437 8 5.5C8 4.89583 7.80217 4.28159 7.37305 3.79883C6.94393 3.31607 6.27083 3 5.5 3ZM5.5 4.5C5.89583 4.5 6.09774 4.62143 6.25195 4.79492C6.40617 4.96841 6.5 5.22917 6.5 5.5C6.5 5.77083 6.40617 6.03159 6.25195 6.20508C6.09774 6.37857 5.89583 6.5 5.5 6.5C5.10417 6.5 4.90226 6.37857 4.74805 6.20508C4.59383 6.03159 4.5 5.77083 4.5 5.5C4.5 5.22917 4.59383 4.96841 4.74805 4.79492C4.90226 4.62143 5.10417 4.5 5.5 4.5ZM18.25 4.5C18.7292 4.5 18.9936 4.65268 19.1895 4.87305C19.3853 5.09341 19.5 5.41667 19.5 5.75C19.5 6.08333 19.3853 6.40659 19.1895 6.62695C18.9936 6.84732 18.7292 7 18.25 7C17.7708 7 17.5064 6.84732 17.3105 6.62695C17.1147 6.40659 17 6.08333 17 5.75C17 5.41667 17.1147 5.09341 17.3105 4.87305C17.5064 4.65268 17.7708 4.5 18.25 4.5ZM11 8.5C12.3896 8.5 13.5 9.6104 13.5 11C13.5 12.3896 12.3896 13.5 11 13.5C9.6104 13.5 8.5 12.3896 8.5 11C8.5 9.6104 9.6104 8.5 11 8.5ZM18.5 12.5C18.8958 12.5 19.0977 12.6214 19.252 12.7949C19.4062 12.9684 19.5 13.2292 19.5 13.5C19.5 13.7708 19.4062 14.0316 19.252 14.2051C19.0977 14.3786 18.8958 14.5 18.5 14.5C18.1042 14.5 17.9023 14.3786 17.748 14.2051C17.5938 14.0316 17.5 13.7708 17.5 13.5C17.5 13.2292 17.5938 12.9684 17.748 12.7949C17.9023 12.6214 18.1042 12.5 18.5 12.5ZM5.5 16C5.89583 16 6.09774 16.1214 6.25195 16.2949C6.40617 16.4684 6.5 16.7292 6.5 17C6.5 17.2708 6.40617 17.5316 6.25195 17.7051C6.09774 17.8786 5.89583 18 5.5 18C5.10417 18 4.90226 17.8786 4.74805 17.7051C4.59383 17.5316 4.5 17.2708 4.5 17C4.5 16.7292 4.59383 16.4684 4.74805 16.2949C4.90226 16.1214 5.10417 16 5.5 16ZM14 17.5C14.3958 17.5 14.5977 17.6214 14.752 17.7949C14.9062 17.9684 15 18.2292 15 18.5C15 18.7708 14.9062 19.0316 14.752 19.2051C14.5977 19.3786 14.3958 19.5 14 19.5C13.6042 19.5 13.4023 19.3786 13.248 19.2051C13.0938 19.0316 13 18.7708 13 18.5C13 18.2292 13.0938 17.9684 13.248 17.7949C13.4023 17.6214 13.6042 17.5 14 17.5Z" fill="#122B46"/>
</svg>
