<svg width="24" height="24" viewBox="0 0 24 24" fill="none" xmlns="http://www.w3.org/2000/svg">
<path d="M12 1C11.1781 1 10.5009 1.4259 9.99904 2H7.75001C7.6288 2.00001 7.5094 2.0294 7.40203 2.08565C7.29466 2.1419 7.20252 2.22333 7.1335 2.32297C7.06448 2.42261 7.02064 2.5375 7.00572 2.65779C6.99081 2.77808 7.00527 2.90019 7.04787 3.01367L8.35451 6.49805C6.91367 7.64847 2.32412 11.7594 2.53029 17.4375C2.62277 19.9809 4.73701 22 7.27834 22H16.7217C19.263 22 21.3773 19.9809 21.4697 17.4375C21.6764 11.7593 17.0865 7.64847 15.6455 6.49805L16.9522 3.01367C16.9948 2.90019 17.0092 2.77808 16.9943 2.65779C16.9794 2.5375 16.9356 2.42261 16.8665 2.32297C16.7975 2.22333 16.7054 2.1419 16.598 2.08565C16.4906 2.0294 16.3712 2.00001 16.25 2H14.001C13.4991 1.4259 12.822 1 12 1ZM12 2.5C12.4646 2.5 12.8546 2.74948 13.0742 3.12695C13.1402 3.24044 13.2348 3.33462 13.3486 3.40008C13.4624 3.46555 13.5914 3.5 13.7227 3.5H15.168L14.2305 6H9.76955L8.83205 3.5H10.2774C10.4086 3.5 10.5376 3.46555 10.6514 3.40008C10.7652 3.33462 10.8598 3.24044 10.9258 3.12695C11.1454 2.74948 11.5354 2.5 12 2.5ZM9.50783 7.5H14.4922C15.3582 8.18075 20.1596 12.1912 19.9707 17.3828C19.9072 19.1294 18.4734 20.5 16.7217 20.5H7.27834C5.52666 20.5 4.09283 19.1294 4.02931 17.3828C3.84081 12.1912 8.64185 8.18074 9.50783 7.5ZM11.9883 8.98926C11.7896 8.99236 11.6002 9.07423 11.4617 9.21686C11.3233 9.3595 11.2472 9.55125 11.25 9.75V10.1133C10.252 10.3984 9.50001 11.2843 9.50001 12.3662V12.3672C9.50001 13.6741 10.5759 14.75 11.8828 14.75H12.6172C13.1133 14.75 13.5 15.1367 13.5 15.6328C13.5 16.1261 13.1177 16.5105 12.624 16.5146L11.7041 16.5225C11.3815 16.5225 11.1213 16.3132 11.0322 16.0303C11.0043 15.9345 10.9575 15.8452 10.8945 15.7677C10.8316 15.6902 10.7539 15.6261 10.6658 15.579C10.5778 15.5319 10.4813 15.5029 10.3819 15.4937C10.2825 15.4844 10.1823 15.495 10.0871 15.525C9.99187 15.555 9.90359 15.6036 9.82743 15.6681C9.75126 15.7326 9.68874 15.8117 9.64352 15.9007C9.59831 15.9897 9.57131 16.0868 9.5641 16.1864C9.5569 16.2859 9.56964 16.3859 9.60158 16.4805C9.83477 17.2215 10.4899 17.6971 11.25 17.8721V18.25C11.2486 18.3494 11.267 18.4481 11.304 18.5403C11.3411 18.6325 11.3961 18.7164 11.4659 18.7872C11.5357 18.858 11.6188 18.9142 11.7105 18.9526C11.8022 18.9909 11.9006 19.0107 12 19.0107C12.0994 19.0107 12.1978 18.9909 12.2895 18.9526C12.3812 18.9142 12.4644 18.858 12.5341 18.7872C12.6039 18.7164 12.6589 18.6325 12.696 18.5403C12.7331 18.4481 12.7514 18.3494 12.75 18.25V17.9912C13.9945 17.918 15 16.8925 15 15.6328C15 14.3259 13.9241 13.25 12.6172 13.25H11.8828C11.3868 13.25 11 12.8633 11 12.3672V12.3662C11 11.8751 11.3789 11.4906 11.8701 11.4834L12.2822 11.4775C12.6067 11.4775 12.8688 11.6894 12.9561 11.9746C12.9841 12.0696 13.0308 12.1582 13.0933 12.2351C13.1558 12.312 13.2329 12.3757 13.3201 12.4227C13.4074 12.4696 13.5031 12.4988 13.6017 12.5085C13.7003 12.5182 13.7999 12.5083 13.8946 12.4794C13.9894 12.4504 14.0775 12.403 14.1538 12.3398C14.2301 12.2766 14.2932 12.1989 14.3393 12.1112C14.3854 12.0235 14.4137 11.9275 14.4225 11.8288C14.4313 11.7301 14.4205 11.6306 14.3906 11.5361C14.163 10.7918 13.509 10.3141 12.75 10.1338V9.75C12.7515 9.64962 12.7327 9.54997 12.6949 9.45695C12.6572 9.36394 12.6011 9.27946 12.5301 9.20852C12.459 9.13758 12.3745 9.08161 12.2814 9.04395C12.1884 9.00629 12.0887 8.98769 11.9883 8.98926Z" fill="#122B46"/>
</svg>
