<svg width="24" height="24" viewBox="0 0 24 24" fill="none" xmlns="http://www.w3.org/2000/svg">
<path d="M17.5 2.5C16.5625 2.5 15.7644 2.87857 15.252 3.45508C14.7395 4.03159 14.5 4.77083 14.5 5.5C14.5 6.22917 14.7395 6.96841 15.252 7.54492C15.7644 8.12143 16.5625 8.5 17.5 8.5C18.4375 8.5 19.2356 8.12143 19.748 7.54492C20.2605 6.96841 20.5 6.22917 20.5 5.5C20.5 4.77083 20.2605 4.03159 19.748 3.45508C19.2356 2.87857 18.4375 2.5 17.5 2.5ZM10.75 3C9.89583 3 9.16024 3.34732 8.68945 3.87695C8.21867 4.40659 8 5.08333 8 5.75C8 6.41667 8.21867 7.09341 8.68945 7.62305C9.16024 8.15268 9.89583 8.5 10.75 8.5C11.6042 8.5 12.3398 8.15268 12.8105 7.62305C13.2813 7.09341 13.5 6.41667 13.5 5.75C13.5 5.08333 13.2813 4.40659 12.8105 3.87695C12.3398 3.34732 11.6042 3 10.75 3ZM5.25 4C4.5625 4 3.95191 4.28482 3.56445 4.7207C3.177 5.15659 3 5.70833 3 6.25C3 6.79167 3.177 7.34341 3.56445 7.7793C3.95191 8.21518 4.5625 8.5 5.25 8.5C5.9375 8.5 6.54809 8.21518 6.93555 7.7793C7.323 7.34341 7.5 6.79167 7.5 6.25C7.5 5.70833 7.323 5.15659 6.93555 4.7207C6.54809 4.28482 5.9375 4 5.25 4ZM17.5 4C18.0625 4 18.3894 4.18393 18.627 4.45117C18.8645 4.71841 19 5.10417 19 5.5C19 5.89583 18.8645 6.28159 18.627 6.54883C18.3894 6.81607 18.0625 7 17.5 7C16.9375 7 16.6106 6.81607 16.373 6.54883C16.1355 6.28159 16 5.89583 16 5.5C16 5.10417 16.1355 4.71841 16.373 4.45117C16.6106 4.18393 16.9375 4 17.5 4ZM10.75 4.5C11.2292 4.5 11.4936 4.65268 11.6895 4.87305C11.8853 5.09341 12 5.41667 12 5.75C12 6.08333 11.8853 6.40659 11.6895 6.62695C11.4936 6.84732 11.2292 7 10.75 7C10.2708 7 10.0064 6.84732 9.81055 6.62695C9.61467 6.40659 9.5 6.08333 9.5 5.75C9.5 5.41667 9.61467 5.09341 9.81055 4.87305C10.0064 4.65268 10.2708 4.5 10.75 4.5ZM5.25 5.5C5.5625 5.5 5.70191 5.59018 5.81445 5.7168C5.927 5.84341 6 6.04167 6 6.25C6 6.45833 5.927 6.65659 5.81445 6.7832C5.70191 6.90982 5.5625 7 5.25 7C4.9375 7 4.79809 6.90982 4.68555 6.7832C4.573 6.65659 4.5 6.45833 4.5 6.25C4.5 6.04167 4.573 5.84341 4.68555 5.7168C4.79809 5.59018 4.9375 5.5 5.25 5.5ZM5.25 10C3.46403 10 2 11.464 2 13.25V17.75C2.00002 17.9489 2.07904 18.1397 2.21969 18.2803C2.36034 18.421 2.55109 18.5 2.75 18.5H6.5V19.25C6.50002 19.4489 6.57904 19.6397 6.71969 19.7803C6.86034 19.921 7.05109 20 7.25 20H13V20.75C13 20.9489 13.079 21.1397 13.2197 21.2803C13.3603 21.421 13.5511 21.5 13.75 21.5H21.25C21.4489 21.5 21.6397 21.421 21.7803 21.2803C21.921 21.1397 22 20.9489 22 20.75V14.5C22 12.0236 19.9764 10 17.5 10C16.1249 10 14.8904 10.6254 14.0635 11.6045C13.2842 10.6291 12.0899 10 10.75 10C9.59122 10 8.53803 10.4703 7.76953 11.2285C7.17523 10.4852 6.2713 10 5.25 10ZM5.25 11.5C5.97798 11.5 6.58504 11.9415 6.84961 12.5693C6.62546 13.0857 6.5 13.6535 6.5 14.25V17H3.5V13.25C3.5 12.275 4.27497 11.5 5.25 11.5ZM10.75 11.5C11.8573 11.5 12.7937 12.1539 13.2314 13.0889C13.0835 13.5335 13 14.0071 13 14.5V18.5H8V14.25C8 12.7223 9.22233 11.5 10.75 11.5ZM17.5 11.5C19.1656 11.5 20.5 12.8344 20.5 14.5V20H14.5V14.5C14.5 12.8344 15.8344 11.5 17.5 11.5Z" fill="#122B46"/>
</svg>
