<svg width="24" height="24" viewBox="0 0 24 24" fill="none" xmlns="http://www.w3.org/2000/svg">
<path d="M6.75 3C5.51625 3 4.5 4.01625 4.5 5.25V8H3.75C2.51625 8 1.5 9.01625 1.5 10.25V17.75C1.5 19.536 2.96403 21 4.75 21H19.25C21.036 21 22.5 19.536 22.5 17.75V5.25C22.5 4.01625 21.4838 3 20.25 3H6.75ZM6.75 4.5H20.25C20.6733 4.5 21 4.82675 21 5.25V17.75C21 18.725 20.225 19.5 19.25 19.5H4.75C3.77497 19.5 3 18.725 3 17.75V10.25C3 9.82675 3.32675 9.5 3.75 9.5H4.5V17.25C4.49859 17.3494 4.51696 17.4481 4.55402 17.5403C4.59108 17.6325 4.6461 17.7164 4.71588 17.7872C4.78566 17.858 4.86882 17.9142 4.96051 17.9526C5.0522 17.9909 5.15061 18.0107 5.25 18.0107C5.34939 18.0107 5.4478 17.9909 5.53949 17.9526C5.63118 17.9142 5.71434 17.858 5.78412 17.7872C5.8539 17.7164 5.90892 17.6325 5.94598 17.5403C5.98304 17.4481 6.00141 17.3494 6 17.25V8.87305C6.01323 8.79253 6.01323 8.7104 6 8.62988V5.25C6 4.82675 6.32675 4.5 6.75 4.5ZM8.25 7.5C8.15062 7.49859 8.05194 7.51696 7.95972 7.55402C7.86749 7.59108 7.78355 7.6461 7.71277 7.71588C7.642 7.78566 7.58579 7.86882 7.54743 7.96051C7.50907 8.0522 7.48932 8.15061 7.48932 8.25C7.48932 8.34939 7.50907 8.4478 7.54743 8.53949C7.58579 8.63118 7.642 8.71434 7.71277 8.78412C7.78355 8.8539 7.86749 8.90892 7.95972 8.94598C8.05194 8.98304 8.15062 9.00141 8.25 9H18.75C18.8494 9.00141 18.9481 8.98304 19.0403 8.94598C19.1325 8.90892 19.2164 8.8539 19.2872 8.78412C19.358 8.71434 19.4142 8.63118 19.4526 8.53949C19.4909 8.4478 19.5107 8.34939 19.5107 8.25C19.5107 8.15061 19.4909 8.0522 19.4526 7.96051C19.4142 7.86882 19.358 7.78566 19.2872 7.71588C19.2164 7.6461 19.1325 7.59108 19.0403 7.55402C18.9481 7.51696 18.8494 7.49859 18.75 7.5H8.25ZM8.25 11.5C8.15062 11.4986 8.05194 11.517 7.95972 11.554C7.86749 11.5911 7.78355 11.6461 7.71277 11.7159C7.642 11.7857 7.58579 11.8688 7.54743 11.9605C7.50907 12.0522 7.48932 12.1506 7.48932 12.25C7.48932 12.3494 7.50907 12.4478 7.54743 12.5395C7.58579 12.6312 7.642 12.7143 7.71277 12.7841C7.78355 12.8539 7.86749 12.9089 7.95972 12.946C8.05194 12.983 8.15062 13.0014 8.25 13H12.25C12.3494 13.0014 12.4481 12.983 12.5403 12.946C12.6325 12.9089 12.7164 12.8539 12.7872 12.7841C12.858 12.7143 12.9142 12.6312 12.9526 12.5395C12.9909 12.4478 13.0107 12.3494 13.0107 12.25C13.0107 12.1506 12.9909 12.0522 12.9526 11.9605C12.9142 11.8688 12.858 11.7857 12.7872 11.7159C12.7164 11.6461 12.6325 11.5911 12.5403 11.554C12.4481 11.517 12.3494 11.4986 12.25 11.5H8.25ZM15.25 11.5C15.1506 11.4986 15.0519 11.517 14.9597 11.554C14.8675 11.5911 14.7836 11.6461 14.7128 11.7159C14.642 11.7857 14.5858 11.8688 14.5474 11.9605C14.5091 12.0522 14.4893 12.1506 14.4893 12.25C14.4893 12.3494 14.5091 12.4478 14.5474 12.5395C14.5858 12.6312 14.642 12.7143 14.7128 12.7841C14.7836 12.8539 14.8675 12.9089 14.9597 12.946C15.0519 12.983 15.1506 13.0014 15.25 13H18.75C18.8494 13.0014 18.9481 12.983 19.0403 12.946C19.1325 12.9089 19.2164 12.8539 19.2872 12.7841C19.358 12.7143 19.4142 12.6312 19.4526 12.5395C19.4909 12.4478 19.5107 12.3494 19.5107 12.25C19.5107 12.1506 19.4909 12.0522 19.4526 11.9605C19.4142 11.8688 19.358 11.7857 19.2872 11.7159C19.2164 11.6461 19.1325 11.5911 19.0403 11.554C18.9481 11.517 18.8494 11.4986 18.75 11.5H15.25ZM8.25 15C8.15062 14.9986 8.05194 15.017 7.95972 15.054C7.86749 15.0911 7.78355 15.1461 7.71277 15.2159C7.642 15.2857 7.58579 15.3688 7.54743 15.4605C7.50907 15.5522 7.48932 15.6506 7.48932 15.75C7.48932 15.8494 7.50907 15.9478 7.54743 16.0395C7.58579 16.1312 7.642 16.2143 7.71277 16.2841C7.78355 16.3539 7.86749 16.4089 7.95972 16.446C8.05194 16.483 8.15062 16.5014 8.25 16.5H12.25C12.3494 16.5014 12.4481 16.483 12.5403 16.446C12.6325 16.4089 12.7164 16.3539 12.7872 16.2841C12.858 16.2143 12.9142 16.1312 12.9526 16.0395C12.9909 15.9478 13.0107 15.8494 13.0107 15.75C13.0107 15.6506 12.9909 15.5522 12.9526 15.4605C12.9142 15.3688 12.858 15.2857 12.7872 15.2159C12.7164 15.1461 12.6325 15.0911 12.5403 15.054C12.4481 15.017 12.3494 14.9986 12.25 15H8.25ZM15.25 15C15.1506 14.9986 15.0519 15.017 14.9597 15.054C14.8675 15.0911 14.7836 15.1461 14.7128 15.2159C14.642 15.2857 14.5858 15.3688 14.5474 15.4605C14.5091 15.5522 14.4893 15.6506 14.4893 15.75C14.4893 15.8494 14.5091 15.9478 14.5474 16.0395C14.5858 16.1312 14.642 16.2143 14.7128 16.2841C14.7836 16.3539 14.8675 16.4089 14.9597 16.446C15.0519 16.483 15.1506 16.5014 15.25 16.5H18.75C18.8494 16.5014 18.9481 16.483 19.0403 16.446C19.1325 16.4089 19.2164 16.3539 19.2872 16.2841C19.358 16.2143 19.4142 16.1312 19.4526 16.0395C19.4909 15.9478 19.5107 15.8494 19.5107 15.75C19.5107 15.6506 19.4909 15.5522 19.4526 15.4605C19.4142 15.3688 19.358 15.2857 19.2872 15.2159C19.2164 15.1461 19.1325 15.0911 19.0403 15.054C18.9481 15.017 18.8494 14.9986 18.75 15H15.25Z" fill="#122B46"/>
</svg>
