<svg width="24" height="24" viewBox="0 0 24 24" fill="none" xmlns="http://www.w3.org/2000/svg">
<path d="M5.75 3C4.24011 3 3 4.24011 3 5.75V18.25C3 19.7599 4.24011 21 5.75 21H18.25C19.7599 21 21 19.7599 21 18.25V5.75C21 4.24011 19.7599 3 18.25 3H5.75ZM5.75 4.5H18.25C18.9491 4.5 19.5 5.05089 19.5 5.75V18.25C19.5 18.9491 18.9491 19.5 18.25 19.5H5.75C5.05089 19.5 4.5 18.9491 4.5 18.25V5.75C4.5 5.05089 5.05089 4.5 5.75 4.5ZM9.81641 7.01465C9.15435 7.00251 8.5 7.52696 8.5 8.24902V15.751C8.5 16.7137 9.66299 17.3254 10.457 16.7812L15.9238 13.0303C16.6261 12.5476 16.6261 11.4524 15.9238 10.9697L15.9229 10.9688L10.457 7.21875C10.2585 7.08272 10.0371 7.01869 9.81641 7.01465ZM10 8.72363L14.7744 12L10 15.2764V8.72363Z" fill="#122B46"/>
</svg>
