<svg width="24" height="24" viewBox="0 0 24 24" fill="none" xmlns="http://www.w3.org/2000/svg">
<path d="M14.3926 1.00001C14.1974 1.00287 14.0111 1.08169 13.8731 1.21974L8.84181 6.25099C8.79894 6.27875 8.75902 6.31082 8.72267 6.34669L6.01369 9.0547C5.8912 9.17711 5.81485 9.33814 5.79758 9.51045C5.78032 9.68275 5.8232 9.85573 5.91896 10C5.91896 10 6.43394 10.7792 6.83498 11.6348C7.03549 12.0626 7.20135 12.5097 7.26173 12.8281C7.32106 13.141 7.25016 13.2135 7.30568 13.1582C7.2459 13.2055 6.10995 14.1051 4.79494 15.1699C3.44583 16.2624 2.01926 17.4277 1.44338 18.0029C0.192052 19.2543 0.192052 21.3053 1.44338 22.5567C2.6945 23.8078 4.74473 23.8074 5.99611 22.5567C6.57287 21.9805 7.73844 20.5552 8.83107 19.2061C9.89609 17.891 10.7955 16.7541 10.8428 16.6943C10.863 16.6752 10.9458 16.6258 11.251 16.6777C11.5605 16.7304 11.9939 16.8944 12.4063 17.1006C12.8186 17.3068 13.2158 17.5507 13.5049 17.7402C13.6494 17.835 13.7673 17.9159 13.8477 17.9727C13.8879 18.0011 13.9184 18.0234 13.9385 18.0381C13.947 18.0443 13.9526 18.0485 13.957 18.0518C13.9579 18.0524 13.9603 18.0532 13.961 18.0537C13.9632 18.0554 13.9655 18.057 13.9678 18.0586C14.0971 18.1549 14.2539 18.2069 14.4151 18.207C14.4151 18.207 14.4605 18.0657 14.4746 18.0225L14.9453 17.9883L17.6543 15.2793C17.6932 15.2399 17.7276 15.1964 17.7569 15.1494L22.7764 10.127C22.917 9.98631 22.996 9.79557 22.996 9.59669C22.996 9.39781 22.917 9.20708 22.7764 9.06642L14.9336 1.21974C14.8627 1.1488 14.7783 1.09281 14.6854 1.05507C14.5924 1.01733 14.4929 0.998606 14.3926 1.00001ZM14.0449 5.56056C14.1729 5.56056 14.301 5.60929 14.3985 5.70704C14.594 5.90254 14.594 6.21908 14.3985 6.41408C13.9105 6.90208 13.9105 7.69413 14.3985 8.18263C14.8865 8.67063 15.6775 8.67063 16.166 8.18263L16.3438 8.00587C16.7343 7.61537 17.3673 7.61537 17.7578 8.00587C18.1483 8.39637 18.1483 9.02943 17.7578 9.41993L17.4043 9.77345C16.8183 10.3595 16.8183 11.3085 17.4043 11.8945C17.6938 12.1841 18.0719 12.3296 18.4512 12.333L17.1104 13.6748L10.3252 6.88868L11.4776 5.73634C11.516 5.91992 11.6045 6.09575 11.7471 6.23829C12.1376 6.62879 12.7706 6.62879 13.1611 6.23829L13.6914 5.70704C13.7892 5.60929 13.917 5.56056 14.0449 5.56056ZM9.26369 7.95021L16.0488 14.7354L15.7432 15.042C15.7044 15.0811 15.67 15.1243 15.6406 15.1709L14.3272 16.4854H14.3262C14.0036 16.2739 13.5649 16.0037 13.0772 15.7598C12.5892 15.5157 12.059 15.2929 11.5029 15.1983C10.9469 15.1036 10.2654 15.1448 9.77638 15.6338C9.75595 15.6542 9.73672 15.6757 9.71877 15.6983C9.71877 15.6983 8.75215 16.9206 7.66603 18.2617C6.57991 19.6028 5.32478 21.1083 4.93654 21.4961C4.25786 22.1748 3.1826 22.1748 2.50392 21.4961C1.82545 20.8176 1.82585 19.7432 2.50392 19.0645C2.89304 18.6758 4.39813 17.421 5.73927 16.335C7.08042 15.2489 8.30177 14.2822 8.30177 14.2822C8.32432 14.2646 8.34584 14.2457 8.36623 14.2256C8.85899 13.7334 8.83642 13.0817 8.73537 12.5488C8.63432 12.016 8.42386 11.4898 8.19338 10.9981C7.8699 10.308 7.66883 10.0252 7.47463 9.71583L8.82814 8.36232C8.87568 8.33156 8.91957 8.29553 8.959 8.2549L9.26369 7.95021ZM3.74611 19.5C3.33211 19.5 2.99611 19.836 2.99611 20.25C2.99611 20.664 3.33211 21 3.74611 21C4.16011 21 4.49611 20.664 4.49611 20.25C4.49611 19.836 4.16011 19.5 3.74611 19.5Z" fill="#122B46"/>
</svg>
