<svg width="24" height="24" viewBox="0 0 24 24" fill="none" xmlns="http://www.w3.org/2000/svg">
<path d="M12.5 0C12.224 0 12 0.224 12 0.5V1.5C12 1.776 12.224 2 12.5 2C13.0985 2 13.3742 2.18352 13.7227 2.41602C14.1132 2.67652 14.5985 3 15.5 3C15.776 3 16 2.776 16 2.5V1.5C16 1.224 15.776 1 15.5 1C14.9015 1 14.6258 0.816484 14.2773 0.583984C13.8868 0.323484 13.4015 0 12.5 0ZM12 3.5C8.87219 3.5 6.28279 5.93507 6.02539 9H5.75C5.65062 8.99859 5.55194 9.01696 5.45972 9.05402C5.36749 9.09108 5.28355 9.1461 5.21277 9.21588C5.142 9.28566 5.08579 9.36882 5.04743 9.46051C5.00907 9.5522 4.98932 9.65061 4.98932 9.75C4.98932 9.84939 5.00907 9.9478 5.04743 10.0395C5.08579 10.1312 5.142 10.2143 5.21277 10.2841C5.28355 10.3539 5.36749 10.4089 5.45972 10.446C5.55194 10.483 5.65062 10.5014 5.75 10.5H6V12.5H5.25C3.74011 12.5 2.5 13.7401 2.5 15.25V22.25C2.50002 22.4489 2.57904 22.6397 2.71969 22.7803C2.86034 22.921 3.05109 23 3.25 23H20.75C20.9489 23 21.1397 22.921 21.2803 22.7803C21.421 22.6397 21.5 22.4489 21.5 22.25V15.25C21.5 13.7401 20.2599 12.5 18.75 12.5H18V10.5H18.25C18.3494 10.5014 18.4481 10.483 18.5403 10.446C18.6325 10.4089 18.7164 10.3539 18.7872 10.2841C18.858 10.2143 18.9142 10.1312 18.9526 10.0395C18.9909 9.9478 19.0107 9.84939 19.0107 9.75C19.0107 9.65061 18.9909 9.5522 18.9526 9.46051C18.9142 9.36882 18.858 9.28566 18.7872 9.21588C18.7164 9.1461 18.6325 9.09108 18.5403 9.05402C18.4481 9.01696 18.3494 8.99859 18.25 9H17.9746C17.7172 5.93507 15.1278 3.5 12 3.5ZM12 5C14.3093 5 16.2204 6.75558 16.4707 9H7.5293C7.77957 6.75558 9.69071 5 12 5ZM7.5 10.5H9.5V12.5H7.5V10.5ZM11 10.5H13V12.5H11V10.5ZM14.5 10.5H16.5V12.5H14.5V10.5ZM5.25 14H18.75C19.4491 14 20 14.5509 20 15.25V21.5H4V15.25C4 14.5509 4.55089 14 5.25 14ZM5.75 15.5C5.474 15.5 5.25 15.724 5.25 16V16.5C5.25 16.776 5.474 17 5.75 17H6.25C6.526 17 6.75 16.776 6.75 16.5V16C6.75 15.724 6.526 15.5 6.25 15.5H5.75ZM8.75 15.5C8.474 15.5 8.25 15.724 8.25 16V16.5C8.25 16.776 8.474 17 8.75 17H9.25C9.526 17 9.75 16.776 9.75 16.5V16C9.75 15.724 9.526 15.5 9.25 15.5H8.75ZM11.75 15.5C11.474 15.5 11.25 15.724 11.25 16V16.5C11.25 16.776 11.474 17 11.75 17H12.25C12.526 17 12.75 16.776 12.75 16.5V16C12.75 15.724 12.526 15.5 12.25 15.5H11.75ZM14.75 15.5C14.474 15.5 14.25 15.724 14.25 16V16.5C14.25 16.776 14.474 17 14.75 17H15.25C15.526 17 15.75 16.776 15.75 16.5V16C15.75 15.724 15.526 15.5 15.25 15.5H14.75ZM17.75 15.5C17.474 15.5 17.25 15.724 17.25 16V16.5C17.25 16.776 17.474 17 17.75 17H18.25C18.526 17 18.75 16.776 18.75 16.5V16C18.75 15.724 18.526 15.5 18.25 15.5H17.75ZM5.75 18.5C5.474 18.5 5.25 18.724 5.25 19V19.5C5.25 19.776 5.474 20 5.75 20H6.25C6.526 20 6.75 19.776 6.75 19.5V19C6.75 18.724 6.526 18.5 6.25 18.5H5.75ZM8.75 18.5C8.474 18.5 8.25 18.724 8.25 19V19.5C8.25 19.776 8.474 20 8.75 20H9.25C9.526 20 9.75 19.776 9.75 19.5V19C9.75 18.724 9.526 18.5 9.25 18.5H8.75ZM11.75 18.5C11.474 18.5 11.25 18.724 11.25 19V19.5C11.25 19.776 11.474 20 11.75 20H12.25C12.526 20 12.75 19.776 12.75 19.5V19C12.75 18.724 12.526 18.5 12.25 18.5H11.75ZM14.75 18.5C14.474 18.5 14.25 18.724 14.25 19V19.5C14.25 19.776 14.474 20 14.75 20H15.25C15.526 20 15.75 19.776 15.75 19.5V19C15.75 18.724 15.526 18.5 15.25 18.5H14.75ZM17.75 18.5C17.474 18.5 17.25 18.724 17.25 19V19.5C17.25 19.776 17.474 20 17.75 20H18.25C18.526 20 18.75 19.776 18.75 19.5V19C18.75 18.724 18.526 18.5 18.25 18.5H17.75Z" fill="#122B46"/>
</svg>
