<svg width="24" height="24" viewBox="0 0 24 24" fill="none" xmlns="http://www.w3.org/2000/svg">
<path d="M6.25 2C5.01625 2 4 3.01625 4 4.25V11.0254C3.43494 11.1438 3 11.6538 3 12.25V17.75C3 18.3462 3.43494 18.8562 4 18.9746V19.75C4 20.9838 5.01625 22 6.25 22H17.75C18.9838 22 20 20.9838 20 19.75V18.9746C20.5651 18.8562 21 18.3462 21 17.75V12.25C21 11.6538 20.5651 11.1438 20 11.0254V9.25C20 9.0511 19.9209 8.86036 19.7803 8.71973L19.7725 8.71191L13.2803 2.21973C13.1396 2.07907 12.9489 2.00004 12.75 2H6.25ZM6.25 3.5H12V7.75C12 8.98375 13.0162 10 14.25 10H18.5V11H5.5V4.25C5.5 3.82675 5.82675 3.5 6.25 3.5ZM13.5 4.56055L17.4395 8.5H14.25C13.8268 8.5 13.5 8.17325 13.5 7.75V4.56055ZM4.5 12.5H19.5V17.5H4.5V12.5ZM8 13C7.724 13 7.5 13.224 7.5 13.5V16.5C7.5 16.776 7.724 17 8 17C8.276 17 8.5 16.776 8.5 16.5V16H9C9.827 16 10.5 15.327 10.5 14.5C10.5 13.673 9.827 13 9 13H8ZM11.5 13C11.224 13 11 13.224 11 13.5V16.5C11 16.776 11.224 17 11.5 17H12C13.103 17 14 16.103 14 15C14 13.897 13.103 13 12 13H11.5ZM15 13C14.724 13 14.5 13.224 14.5 13.5V16.5C14.5 16.776 14.724 17 15 17C15.276 17 15.5 16.776 15.5 16.5V15.5H16.25C16.526 15.5 16.75 15.276 16.75 15C16.75 14.724 16.526 14.5 16.25 14.5H15.5V14H16.5C16.776 14 17 13.776 17 13.5C17 13.224 16.776 13 16.5 13H15ZM8.5 14H9C9.2755 14 9.5 14.2245 9.5 14.5C9.5 14.7755 9.2755 15 9 15H8.5V14ZM12 14C12.5515 14 13 14.4485 13 15C13 15.5515 12.5515 16 12 16V14ZM5.5 19H18.5V19.75C18.5 20.1733 18.1732 20.5 17.75 20.5H6.25C5.82675 20.5 5.5 20.1733 5.5 19.75V19Z" fill="#122B46"/>
</svg>
