<svg width="24" height="24" viewBox="0 0 24 24" fill="none" xmlns="http://www.w3.org/2000/svg">
<path d="M5.75 3C4.24011 3 3 4.24011 3 5.75V18.25C3 19.7599 4.24011 21 5.75 21H18.25C19.7599 21 21 19.7599 21 18.25V5.75C21 4.24011 19.7599 3 18.25 3H5.75ZM5.75 4.5H18.25C18.9491 4.5 19.5 5.05089 19.5 5.75V18.25C19.5 18.9491 18.9491 19.5 18.25 19.5H5.75C5.05089 19.5 4.5 18.9491 4.5 18.25V5.75C4.5 5.05089 5.05089 4.5 5.75 4.5ZM15.0879 6.50488C14.4688 6.50488 13.8498 6.73905 13.3818 7.20703L7.77344 12.8145C7.60955 12.9772 7.48997 13.1802 7.42676 13.4023V13.4033L7.42578 13.4043L6.5293 16.5439C6.49271 16.6725 6.49113 16.8084 6.52472 16.9378C6.55831 17.0671 6.62584 17.1852 6.72034 17.2797C6.81483 17.3742 6.93286 17.4417 7.0622 17.4753C7.19155 17.5089 7.32752 17.5073 7.45605 17.4707L10.5977 16.5732H10.5986C10.8191 16.5098 11.0209 16.3912 11.1836 16.2285L16.7939 10.6191C17.7299 9.68318 17.7299 8.14299 16.7939 7.20703C16.326 6.73905 15.7069 6.50488 15.0879 6.50488ZM15.0879 7.99609C15.3201 7.99609 15.5524 8.08656 15.7334 8.26758C16.0964 8.63062 16.0964 9.19556 15.7334 9.55859L10.1484 15.1426L8.3418 15.6582L8.85742 13.8516L14.4424 8.26758C14.6234 8.08656 14.8557 7.99609 15.0879 7.99609Z" fill="#122B46"/>
</svg>
