<svg width="24" height="24" viewBox="0 0 24 24" fill="none" xmlns="http://www.w3.org/2000/svg">
<path d="M16.2393 2C16.0441 2.00285 15.8578 2.08167 15.7198 2.21972L12.0196 5.91992L8.06352 6.98437C6.5619 7.38845 5.398 8.58421 5.0352 10.0967L3.09184 18.1953C2.92509 18.8897 3.15481 19.5341 3.54985 20.0439C3.57916 20.1154 3.61935 20.182 3.66899 20.2412C3.66931 20.2415 3.66964 20.2419 3.66997 20.2422C3.69999 20.2739 3.72807 20.3011 3.75981 20.3311C3.81897 20.381 3.88551 20.4216 3.95707 20.4512C4.46678 20.8455 5.11093 21.0748 5.80473 20.9082L13.9024 18.9639C15.4147 18.6011 16.6101 17.4382 17.0147 15.9365L18.0801 11.9805L21.7803 8.28027C21.9209 8.13961 21.9999 7.94888 21.9999 7.75C21.9999 7.55112 21.9209 7.36038 21.7803 7.21972L16.7803 2.21972C16.7094 2.14879 16.625 2.09279 16.5321 2.05505C16.4391 2.01731 16.3396 1.99859 16.2393 2ZM16.25 3.81054L20.1895 7.75L18.75 9.18945L14.8106 5.25L16.25 3.81054ZM13.75 6.31054L17.6895 10.25L16.877 11.0615C16.7844 11.1544 16.7177 11.2698 16.6836 11.3965L15.5665 15.5469C15.304 16.5211 14.5335 17.2706 13.5528 17.5059L5.66118 19.3994L11.0733 13.9873C11.1318 13.9957 11.1909 14 11.25 14C11.5816 14 11.8995 13.8683 12.1339 13.6339C12.3683 13.3995 12.5 13.0815 12.5 12.75C12.5 12.4185 12.3683 12.1005 12.1339 11.8661C11.8995 11.6317 11.5816 11.5 11.25 11.5C11.0711 11.5002 10.8944 11.5388 10.7317 11.6131C10.5689 11.6875 10.4241 11.7959 10.3069 11.9311C10.1897 12.0662 10.1029 12.225 10.0523 12.3966C10.0017 12.5682 9.98856 12.7487 10.0137 12.9258L4.59868 18.3408L6.49418 10.4473C6.72939 9.46673 7.47979 8.69552 8.45317 8.43359L12.6026 7.3164C12.7297 7.28222 12.8455 7.2152 12.9385 7.12207L13.75 6.31054Z" fill="#122B46"/>
</svg>
