<svg width="24" height="24" viewBox="0 0 24 24" fill="none" xmlns="http://www.w3.org/2000/svg">
<path d="M11.9844 1.01075C11.7923 1.01482 11.6092 1.09242 11.4727 1.22754L10.2422 2.44434L8.56835 2.00489C8.37712 1.95471 8.17381 1.98206 8.00263 2.081C7.83146 2.17993 7.70627 2.34245 7.65429 2.53321L7.19921 4.20215L5.53027 4.65723C5.33991 4.70943 5.1778 4.83455 5.07908 5.00548C4.98037 5.1764 4.953 5.37935 5.00292 5.57032L5.4414 7.24512L4.2246 8.47559C4.08579 8.616 4.00793 8.80549 4.00793 9.00293C4.00793 9.20038 4.08579 9.38986 4.2246 9.53028L5.4414 10.7607L5.00195 12.4336C4.95177 12.6248 4.97912 12.8281 5.07806 12.9993C5.177 13.1705 5.33951 13.2957 5.53027 13.3477L7.19921 13.8027L7.50585 14.9258C7.50186 14.9575 7.49991 14.9895 7.5 15.0215V22.25C7.50002 22.3857 7.53689 22.5189 7.60665 22.6354C7.67642 22.7518 7.77647 22.8471 7.89615 22.9112C8.01582 22.9752 8.15063 23.0056 8.28621 22.999C8.42179 22.9925 8.55306 22.9493 8.66601 22.874L11.8613 20.7441C11.9473 20.6868 12.0527 20.6868 12.1387 20.7441L15.334 22.874C15.4469 22.9493 15.5782 22.9925 15.7138 22.999C15.8494 23.0056 15.9842 22.9752 16.1038 22.9112C16.2235 22.8471 16.3236 22.7518 16.3933 22.6354C16.4631 22.5189 16.5 22.3857 16.5 22.25V15.0215C16.5001 14.9895 16.4981 14.9575 16.4941 14.9258L16.8008 13.8027L18.4687 13.3477C18.6593 13.2957 18.8216 13.1706 18.9205 12.9997C19.0195 12.8287 19.047 12.6257 18.9971 12.4346L18.5586 10.7607L19.7754 9.53028C19.9142 9.38986 19.9921 9.20038 19.9921 9.00293C19.9921 8.80549 19.9142 8.616 19.7754 8.47559L18.5586 7.24512L18.998 5.57129C19.0482 5.38006 19.0209 5.17674 18.9219 5.00557C18.823 4.8344 18.6605 4.70921 18.4697 4.65723L16.8008 4.20215L16.3457 2.53321C16.2937 2.34245 16.1685 2.17993 15.9974 2.081C15.8262 1.98206 15.6229 1.95471 15.4316 2.00489L13.7578 2.44434L12.5273 1.22754C12.456 1.1569 12.3711 1.10131 12.2778 1.06406C12.1846 1.02682 12.0848 1.00869 11.9844 1.01075ZM12 2.81543L13.0068 3.81153C13.0995 3.90318 13.2144 3.96912 13.3402 4.00285C13.4661 4.03659 13.5986 4.03695 13.7246 4.00391L15.0937 3.64454L15.4668 5.01075C15.5013 5.13652 15.568 5.25114 15.6603 5.34327C15.7526 5.43541 15.8673 5.50188 15.9932 5.53614L17.3584 5.90918L16.999 7.27735C16.966 7.40339 16.9663 7.53587 17.0001 7.66173C17.0338 7.78759 17.0998 7.9025 17.1914 7.99512L18.1875 9.00293L17.1914 10.0098C17.0998 10.1024 17.0338 10.2173 17.0001 10.3432C16.9663 10.469 16.966 10.6015 16.999 10.7275L17.3584 12.0967L15.9922 12.4688C15.8662 12.5031 15.7514 12.5697 15.6591 12.662C15.5668 12.7543 15.5002 12.8692 15.4658 12.9951L15.0937 14.3604L13.7246 14.002C13.5986 13.9688 13.4662 13.969 13.3404 14.0026C13.2145 14.0361 13.0996 14.1019 13.0068 14.1934L12 15.1895L10.9932 14.1934C10.9004 14.1019 10.7855 14.0361 10.6596 14.0026C10.5338 13.969 10.4013 13.9688 10.2754 14.002L8.90625 14.3604L8.5332 12.9951C8.49886 12.8692 8.43224 12.7543 8.33992 12.662C8.2476 12.5697 8.13279 12.5031 8.00683 12.4688L6.6416 12.0967L7.00097 10.7275C7.03401 10.6015 7.03365 10.469 6.99991 10.3432C6.96618 10.2173 6.90024 10.1024 6.80859 10.0098L5.8125 9.00293L6.80859 7.99512C6.90024 7.9025 6.96618 7.78759 6.99991 7.66173C7.03365 7.53587 7.03401 7.40339 7.00097 7.27735L6.6416 5.90821L8.00781 5.53614C8.13377 5.5018 8.24858 5.43517 8.3409 5.34286C8.43321 5.25054 8.49983 5.13573 8.53417 5.00977L8.90625 3.64454L10.2754 4.00391C10.4014 4.03695 10.5339 4.03659 10.6598 4.00285C10.7856 3.96912 10.9005 3.90318 10.9932 3.81153L12 2.81543ZM10.2422 15.5606L11.4727 16.7773C11.6131 16.9162 11.8025 16.994 12 16.994C12.1974 16.994 12.3869 16.9162 12.5273 16.7773L13.7578 15.5606L15 15.8867V20.8486L12.9707 19.4961C12.3847 19.1054 11.6153 19.1054 11.0293 19.4961L9 20.8486V15.8867L10.2422 15.5606Z" fill="#122B46"/>
</svg>
