<svg width="24" height="24" viewBox="0 0 24 24" fill="none" xmlns="http://www.w3.org/2000/svg">
<path d="M11.9707 1.50098C11.8139 1.50696 11.663 1.56194 11.5391 1.65821C10.756 2.26723 10.1548 2.56754 9.22461 2.75782C8.29439 2.94809 7.01935 3 5.0625 3C4.94837 2.99999 4.83573 3.02601 4.73318 3.07611C4.63062 3.1262 4.54085 3.19903 4.4707 3.28907L3.1582 4.97657C3.0405 5.12764 2.98504 5.31802 3.0032 5.50867C3.02135 5.69933 3.11175 5.87582 3.25586 6.00196C3.25586 6.00196 4.5 7.08334 4.5 9C4.5 9.95834 4.23243 10.2983 3.83789 11.0381C3.44335 11.7779 3 12.8264 3 14.625C3 17.3217 5.37081 20.9896 11.8311 22.4805C11.9422 22.5062 12.0578 22.5062 12.1689 22.4805C18.6292 20.9896 21 17.3217 21 14.625C21 12.8264 20.5567 11.7779 20.1621 11.0381C19.7676 10.2983 19.5 9.95834 19.5 9C19.5 7.08334 20.7441 6.00196 20.7441 6.00196C20.8186 5.93675 20.8794 5.85747 20.923 5.76866C20.9667 5.67986 20.9923 5.58329 20.9985 5.48453C21.0047 5.38577 20.9913 5.28676 20.959 5.19321C20.9267 5.09966 20.8763 5.01342 20.8105 4.93946L19.3105 3.25196C19.2402 3.17276 19.1539 3.10936 19.0573 3.06594C18.9606 3.02251 18.8559 3.00004 18.75 3C16.8875 3 15.6613 2.94752 14.7549 2.75782C13.8485 2.56811 13.244 2.26723 12.4609 1.65821C12.3212 1.5496 12.1475 1.49391 11.9707 1.50098ZM11.999 3.13184C12.755 3.64794 13.5241 4.03315 14.4482 4.22657C15.4656 4.4395 16.7485 4.47029 18.3936 4.47754L19.2764 5.47071C18.7696 6.05614 18 7.12196 18 9C18 10.2917 18.4824 11.0767 18.8379 11.7432C19.1934 12.4097 19.5 13.0486 19.5 14.625C19.5 16.4098 17.8696 19.5593 12 20.9707C6.13039 19.5593 4.5 16.4098 4.5 14.625C4.5 13.0486 4.80665 12.4097 5.16211 11.7432C5.51757 11.0767 6 10.2917 6 9C6 7.08489 5.19753 6.00646 4.69824 5.43946L5.44824 4.47657C7.16091 4.46901 8.49097 4.43815 9.52539 4.22657C10.4687 4.03362 11.2416 3.64818 11.999 3.13184ZM12 7.52246C11.818 7.52246 11.6363 7.60732 11.5518 7.77832L10.5303 9.84668L8.24707 10.1787C8.05907 10.2062 7.90275 10.338 7.84375 10.5195C7.78475 10.7 7.8342 10.8988 7.9707 11.0313L9.62207 12.6416L9.23242 14.915C9.20042 15.1025 9.27667 15.2923 9.43067 15.4043C9.58517 15.5173 9.78853 15.5319 9.95703 15.4424L12 14.3691L14.041 15.4424C14.1145 15.4814 14.1949 15.5 14.2744 15.5C14.3779 15.5 14.4814 15.4678 14.5684 15.4043C14.7224 15.2923 14.7996 15.1025 14.7676 14.915L14.3779 12.6416L16.0293 11.0313C16.1658 10.8988 16.2148 10.7 16.1563 10.5195C16.0973 10.3385 15.9409 10.2062 15.7529 10.1787L13.4697 9.84668L12.4482 7.77832C12.3637 7.60732 12.182 7.52246 12 7.52246Z" fill="#122B46"/>
</svg>
