<svg width="24" height="24" viewBox="0 0 24 24" fill="none" xmlns="http://www.w3.org/2000/svg">
<path d="M22.25 3.5C12.5611 3.5 7.60149 6.39138 5.13864 9.40039C2.86622 12.1768 2.79666 14.7972 2.79294 15.2236C2.77281 15.275 2.7584 15.3283 2.74997 15.3828C2.73968 15.3964 2.72306 15.4112 2.71286 15.4248C1.12586 17.5408 0.744577 19.3931 0.538058 20.0127C0.506877 20.1062 0.494418 20.2049 0.501393 20.3032C0.508369 20.4015 0.534641 20.4975 0.57871 20.5857C0.622779 20.6738 0.683782 20.7524 0.758234 20.817C0.832687 20.8816 0.919131 20.9309 1.01263 20.962C1.10613 20.9932 1.20485 21.0056 1.30316 20.9986C1.40147 20.9917 1.49744 20.9654 1.58559 20.9213C1.67374 20.8772 1.75234 20.8162 1.8169 20.7417C1.88147 20.6673 1.93073 20.5808 1.96189 20.4873C2.25537 19.6069 2.49908 18.2092 3.91208 16.3252C3.93717 16.2917 3.97806 16.2534 4.00388 16.2197C5.27266 16.1768 12.4222 15.7633 17.9931 11.3135C18.1264 11.2071 18.2194 11.0585 18.2568 10.8921C18.2943 10.7258 18.274 10.5517 18.1992 10.3984L17.7168 9.40918L19.6015 9.46191C19.713 9.46517 19.8237 9.44355 19.9258 9.39861C20.0278 9.35368 20.1185 9.28656 20.1914 9.20215C21.3176 7.89419 22.2749 6.34036 22.9531 4.51074C22.9951 4.39734 23.0091 4.27546 22.9939 4.15549C22.9786 4.03552 22.9346 3.92101 22.8655 3.82173C22.7964 3.72246 22.7044 3.64135 22.5972 3.58533C22.49 3.52931 22.3709 3.50003 22.25 3.5ZM21.0429 5.04492C20.5368 6.1228 19.9469 7.10361 19.25 7.95215L16.5215 7.875C16.3924 7.87132 16.2646 7.901 16.1504 7.96117C16.0362 8.02135 15.9395 8.10998 15.8695 8.2185C15.7996 8.32701 15.7589 8.45174 15.7513 8.5806C15.7437 8.70947 15.7695 8.83812 15.8261 8.9541L16.5664 10.4727C12.7561 13.2896 8.16114 14.2207 5.55857 14.5391C7.10864 13.0743 9.35806 11.4859 12.8076 9.93359C12.9008 9.8955 12.9854 9.83902 13.0563 9.76752C13.1272 9.69603 13.183 9.61099 13.2204 9.51747C13.2577 9.42395 13.2759 9.32387 13.2737 9.22319C13.2716 9.12251 13.2491 9.0233 13.2078 8.93147C13.1665 8.83963 13.1071 8.75706 13.0332 8.68868C12.9593 8.62029 12.8723 8.56749 12.7776 8.53342C12.6828 8.49935 12.5821 8.48472 12.4816 8.49039C12.3811 8.49605 12.2827 8.52191 12.1924 8.56641C8.71857 10.1296 6.36773 11.7621 4.68357 13.3184C4.97017 12.4441 5.41725 11.4279 6.29978 10.3496C8.34289 7.85341 12.5087 5.27814 21.0429 5.04492Z" fill="#122B46"/>
</svg>
