<svg width="24" height="24" viewBox="0 0 24 24" fill="none" xmlns="http://www.w3.org/2000/svg">
<path d="M4.75 5C2.68775 5 1 6.68775 1 8.75V16.25C1 17.43 1.93232 18.4012 3.09277 18.4844C3.00984 18.7109 2.98278 18.9542 3.01388 19.1934C3.04499 19.4326 3.13335 19.6609 3.27145 19.8587C3.40956 20.0565 3.59335 20.2181 3.80722 20.3297C4.02109 20.4414 4.25874 20.4998 4.5 20.5C4.81 20.4998 5.11231 20.4035 5.36536 20.2244C5.6184 20.0453 5.80975 19.7923 5.91309 19.5H7.08594C7.18933 19.7924 7.38082 20.0456 7.63406 20.2247C7.8873 20.4038 8.18983 20.5 8.5 20.5C8.73996 20.5 8.97641 20.4424 9.1895 20.3321C9.40259 20.2217 9.58611 20.0619 9.72464 19.866C9.86317 19.67 9.95267 19.4437 9.98563 19.206C10.0186 18.9684 9.99405 18.7262 9.91406 18.5H14.0869C14.007 18.7262 13.9824 18.9682 14.0153 19.2058C14.0482 19.4434 14.1376 19.6697 14.2761 19.8656C14.4145 20.0615 14.5979 20.2213 14.8108 20.3317C15.0238 20.4421 15.2601 20.4998 15.5 20.5C15.81 20.4998 16.1123 20.4035 16.3654 20.2244C16.6184 20.0453 16.8098 19.7923 16.9131 19.5H18.0859C18.1893 19.7924 18.3808 20.0456 18.6341 20.2247C18.8873 20.4038 19.1898 20.5 19.5 20.5C19.7413 20.4998 19.9789 20.4414 20.1928 20.3297C20.4067 20.2181 20.5904 20.0565 20.7285 19.8587C20.8667 19.6609 20.955 19.4326 20.9861 19.1934C21.0172 18.9542 20.9902 18.7109 20.9072 18.4844C22.0677 18.4012 23 17.43 23 16.25V8.75C23 6.68775 21.3123 5 19.25 5H4.75ZM4.75 6.5H19.25C20.235 6.5 21.0424 7.12658 21.3506 8H2.64941C2.95757 7.12658 3.76497 6.5 4.75 6.5ZM2.5 9.5H6V12.5H2.5V9.5ZM7.5 9.5H11.25V12.5H7.5V9.5ZM12.75 9.5H16.5V12.5H12.75V9.5ZM18 9.5H21.5V12.5H18V9.5ZM2.5 14H6.62695C6.70747 14.0132 6.7896 14.0132 6.87012 14H11.877C11.9575 14.0132 12.0396 14.0132 12.1201 14H17.127C17.2075 14.0132 17.2896 14.0132 17.3701 14H21.5V16.25C21.5 16.6732 21.1733 17 20.75 17H3.25C2.82675 17 2.5 16.6732 2.5 16.25V14Z" fill="#122B46"/>
</svg>
