<svg width="24" height="24" viewBox="0 0 24 24" fill="none" xmlns="http://www.w3.org/2000/svg">
<path d="M8.75 2C7.24011 2 6 3.24011 6 4.75V19.25C6 20.7599 7.24011 22 8.75 22H15.25C16.7599 22 18 20.7599 18 19.25V17.373C18.0132 17.2925 18.0132 17.2104 18 17.1299V13.873C18.0132 13.7925 18.0132 13.7104 18 13.6299V10.373C18.0132 10.2925 18.0132 10.2104 18 10.1299V6.87305C18.0132 6.79253 18.0132 6.7104 18 6.62988V4.75C18 3.24011 16.7599 2 15.25 2H8.75ZM8.75 3.5H15.25C15.9491 3.5 16.5 4.05089 16.5 4.75V6H13.25C13.1506 5.99859 13.0519 6.01696 12.9597 6.05402C12.8675 6.09108 12.7836 6.1461 12.7128 6.21588C12.642 6.28566 12.5858 6.36882 12.5474 6.46051C12.5091 6.5522 12.4893 6.65061 12.4893 6.75C12.4893 6.84939 12.5091 6.9478 12.5474 7.03949C12.5858 7.13118 12.642 7.21434 12.7128 7.28412C12.7836 7.3539 12.8675 7.40892 12.9597 7.44598C13.0519 7.48304 13.1506 7.50141 13.25 7.5H16.5V9.5H14.75C14.6506 9.49859 14.5519 9.51696 14.4597 9.55402C14.3675 9.59108 14.2836 9.6461 14.2128 9.71588C14.142 9.78566 14.0858 9.86882 14.0474 9.96051C14.0091 10.0522 13.9893 10.1506 13.9893 10.25C13.9893 10.3494 14.0091 10.4478 14.0474 10.5395C14.0858 10.6312 14.142 10.7143 14.2128 10.7841C14.2836 10.8539 14.3675 10.9089 14.4597 10.946C14.5519 10.983 14.6506 11.0014 14.75 11H16.5V13H13.25C13.1506 12.9986 13.0519 13.017 12.9597 13.054C12.8675 13.0911 12.7836 13.1461 12.7128 13.2159C12.642 13.2857 12.5858 13.3688 12.5474 13.4605C12.5091 13.5522 12.4893 13.6506 12.4893 13.75C12.4893 13.8494 12.5091 13.9478 12.5474 14.0395C12.5858 14.1312 12.642 14.2143 12.7128 14.2841C12.7836 14.3539 12.8675 14.4089 12.9597 14.446C13.0519 14.483 13.1506 14.5014 13.25 14.5H16.5V16.5H14.75C14.6506 16.4986 14.5519 16.517 14.4597 16.554C14.3675 16.5911 14.2836 16.6461 14.2128 16.7159C14.142 16.7857 14.0858 16.8688 14.0474 16.9605C14.0091 17.0522 13.9893 17.1506 13.9893 17.25C13.9893 17.3494 14.0091 17.4478 14.0474 17.5395C14.0858 17.6312 14.142 17.7143 14.2128 17.7841C14.2836 17.8539 14.3675 17.9089 14.4597 17.946C14.5519 17.983 14.6506 18.0014 14.75 18H16.5V19.25C16.5 19.9491 15.9491 20.5 15.25 20.5H8.75C8.05089 20.5 7.5 19.9491 7.5 19.25V4.75C7.5 4.05089 8.05089 3.5 8.75 3.5Z" fill="#122B46"/>
</svg>
