<svg width="24" height="24" viewBox="0 0 24 24" fill="none" xmlns="http://www.w3.org/2000/svg">
<path d="M14 2C13.2043 2 12.4415 2.31623 11.8789 2.87891L2.87886 11.8789C1.71388 13.0439 1.71388 14.9561 2.87886 16.1211L7.87886 21.1211C8.44154 21.6838 9.20428 22 9.99995 22C10.7956 22 11.5584 21.6838 12.121 21.1211L21.121 12.1211C21.6839 11.5582 22 10.7947 22 9.99902V4.5C22 3.12826 20.8717 2 19.5 2H14ZM14 3.5H19.5C20.0582 3.5 20.5 3.94174 20.5 4.5V9.99902C20.5 10.4053 20.3476 10.7734 20.0605 11.0605L11.0605 20.0605C10.7732 20.3479 10.4063 20.5 9.99995 20.5C9.59363 20.5 9.22673 20.3479 8.93941 20.0605L3.93941 15.0605C3.34938 14.4705 3.34938 13.5295 3.93941 12.9395L12.9394 3.93945C13.2267 3.65213 13.5936 3.5 14 3.5ZM17 5.5C16.1715 5.5 15.5 6.1715 15.5 7C15.5 7.8285 16.1715 8.5 17 8.5C17.8285 8.5 18.5 7.8285 18.5 7C18.5 6.1715 17.8285 5.5 17 5.5ZM11.25 9C10.9847 9 10.7304 9.10536 10.5428 9.29289C10.3553 9.48043 10.25 9.73478 10.25 10C10.25 10.2652 10.3553 10.5196 10.5428 10.7071C10.7304 10.8946 10.9847 11 11.25 11C11.5152 11 11.7695 10.8946 11.9571 10.7071C12.1446 10.5196 12.25 10.2652 12.25 10C12.25 9.73478 12.1446 9.48043 11.9571 9.29289C11.7695 9.10536 11.5152 9 11.25 9ZM7.99995 12C7.90057 11.9986 7.8019 12.017 7.70967 12.054C7.61744 12.0911 7.5335 12.1461 7.46273 12.2159C7.39195 12.2857 7.33575 12.3688 7.29739 12.4605C7.25903 12.5522 7.23927 12.6506 7.23927 12.75C7.23927 12.8494 7.25903 12.9478 7.29739 13.0395C7.33575 13.1312 7.39195 13.2143 7.46273 13.2841C7.5335 13.3539 7.61744 13.4089 7.70967 13.446C7.8019 13.483 7.90057 13.5014 7.99995 13.5H14.5C14.5993 13.5014 14.698 13.483 14.7902 13.446C14.8825 13.4089 14.9664 13.3539 15.0372 13.2841C15.108 13.2143 15.1642 13.1312 15.2025 13.0395C15.2409 12.9478 15.2606 12.8494 15.2606 12.75C15.2606 12.6506 15.2409 12.5522 15.2025 12.4605C15.1642 12.3688 15.108 12.2857 15.0372 12.2159C14.9664 12.1461 14.8825 12.0911 14.7902 12.054C14.698 12.017 14.5993 11.9986 14.5 12H7.99995ZM11.25 14.5C10.9847 14.5 10.7304 14.6054 10.5428 14.7929C10.3553 14.9804 10.25 15.2348 10.25 15.5C10.25 15.7652 10.3553 16.0196 10.5428 16.2071C10.7304 16.3946 10.9847 16.5 11.25 16.5C11.5152 16.5 11.7695 16.3946 11.9571 16.2071C12.1446 16.0196 12.25 15.7652 12.25 15.5C12.25 15.2348 12.1446 14.9804 11.9571 14.7929C11.7695 14.6054 11.5152 14.5 11.25 14.5Z" fill="#122B46"/>
</svg>
