<svg width="24" height="24" viewBox="0 0 24 24" fill="none" xmlns="http://www.w3.org/2000/svg">
<path d="M11.9893 2.25001C11.7941 2.25287 11.6077 2.33169 11.4697 2.46974L8.46973 5.46974C8.39775 5.53885 8.34028 5.62163 8.3007 5.71322C8.26111 5.80482 8.2402 5.90339 8.23918 6.00317C8.23817 6.10295 8.25707 6.20193 8.29479 6.29431C8.33251 6.38669 8.38828 6.47062 8.45883 6.54118C8.52939 6.61174 8.61332 6.66751 8.7057 6.70522C8.79808 6.74294 8.89706 6.76185 8.99684 6.76083C9.09662 6.75982 9.1952 6.7389 9.28679 6.69932C9.37839 6.65973 9.46116 6.60226 9.53027 6.53029L11.249 4.81154L11.2402 14.749C11.2387 14.8484 11.2569 14.9471 11.2939 15.0394C11.3308 15.1316 11.3857 15.2157 11.4554 15.2865C11.5251 15.3574 11.6082 15.4137 11.6998 15.4522C11.7915 15.4906 11.8899 15.5105 11.9892 15.5106C12.0886 15.5108 12.1871 15.4912 12.2788 15.4529C12.3705 15.4147 12.4538 15.3586 12.5236 15.2879C12.5935 15.2172 12.6486 15.1334 12.6858 15.0412C12.723 14.949 12.7415 14.8504 12.7402 14.751L12.749 4.80958L14.4697 6.53029C14.5388 6.60226 14.6216 6.65973 14.7132 6.69932C14.8048 6.7389 14.9034 6.75982 15.0032 6.76083C15.1029 6.76185 15.2019 6.74294 15.2943 6.70522C15.3867 6.66751 15.4706 6.61174 15.5412 6.54118C15.6117 6.47062 15.6675 6.38669 15.7052 6.29431C15.7429 6.20193 15.7618 6.10295 15.7608 6.00317C15.7598 5.90339 15.7389 5.80482 15.6993 5.71322C15.6597 5.62163 15.6023 5.53885 15.5303 5.46974L12.5303 2.46974C12.4594 2.3988 12.375 2.34281 12.282 2.30507C12.1891 2.26733 12.0895 2.24861 11.9893 2.25001ZM7.75 8.50001C6.24011 8.50001 5 9.74013 5 11.25V19.25C5 20.7599 6.24011 22 7.75 22H16.25C17.7599 22 19 20.7599 19 19.25V11.25C19 9.74013 17.7599 8.50001 16.25 8.50001H15.25C15.1506 8.49861 15.0519 8.51697 14.9597 8.55403C14.8675 8.59109 14.7836 8.64611 14.7128 8.71589C14.642 8.78568 14.5858 8.86883 14.5474 8.96052C14.5091 9.05222 14.4893 9.15062 14.4893 9.25001C14.4893 9.34941 14.5091 9.44781 14.5474 9.5395C14.5858 9.6312 14.642 9.71435 14.7128 9.78413C14.7836 9.85392 14.8675 9.90894 14.9597 9.946C15.0519 9.98306 15.1506 10.0014 15.25 10H16.25C16.9491 10 17.5 10.5509 17.5 11.25V19.25C17.5 19.9491 16.9491 20.5 16.25 20.5H7.75C7.05089 20.5 6.5 19.9491 6.5 19.25V11.25C6.5 10.5509 7.05089 10 7.75 10H8.75C8.84938 10.0014 8.94806 9.98306 9.04028 9.946C9.13251 9.90894 9.21645 9.85392 9.28723 9.78413C9.358 9.71435 9.41421 9.6312 9.45257 9.5395C9.49093 9.44781 9.51068 9.34941 9.51068 9.25001C9.51068 9.15062 9.49093 9.05222 9.45257 8.96052C9.41421 8.86883 9.358 8.78568 9.28723 8.71589C9.21645 8.64611 9.13251 8.59109 9.04028 8.55403C8.94806 8.51697 8.84938 8.49861 8.75 8.50001H7.75Z" fill="#122B46"/>
</svg>
