<svg width="24" height="24" viewBox="0 0 24 24" fill="none" xmlns="http://www.w3.org/2000/svg">
<path d="M9.65332 2.51562C9.53421 2.51094 9.41571 2.53471 9.30762 2.58496C8.98267 2.67123 7.71251 3.02701 6.36035 3.68555C6.33633 3.69725 6.31214 3.71078 6.28809 3.72266C6.1631 3.75095 6.04744 3.8108 5.95215 3.89648C5.31011 4.23702 4.67737 4.64302 4.14941 5.14941C3.50966 5.76304 3 6.56689 3 7.52539V17.2246C3 18.4584 4.01625 19.4746 5.25 19.4746H6.02539C6.15285 20.5913 7.1017 21.4746 8.25 21.4746H15.75C16.8983 21.4746 17.8471 20.5913 17.9746 19.4746H18.75C19.9838 19.4746 21 18.4584 21 17.2246V7.52539C21 6.56689 20.4903 5.76304 19.8506 5.14941C19.2108 4.53579 18.4172 4.06425 17.6396 3.68555C16.1594 2.9646 14.7423 2.59636 14.6055 2.56152C14.5887 2.55637 14.5718 2.55181 14.5547 2.54785C14.5305 2.54176 14.5061 2.53687 14.4814 2.5332C14.4565 2.52966 14.4314 2.52738 14.4062 2.52637C14.3906 2.52555 14.375 2.52523 14.3594 2.52539H9.74316C9.71344 2.52033 9.68344 2.51707 9.65332 2.51562ZM10.8164 4.02539H13.1836L12 6.50781L10.8164 4.02539ZM9.22852 4.18066L11.3232 8.57324C11.3843 8.70097 11.4802 8.80882 11.6 8.88432C11.7198 8.95982 11.8584 8.99988 12 8.99988C12.1416 8.99988 12.2802 8.95982 12.4 8.88432C12.5198 8.80882 12.6157 8.70097 12.6768 8.57324L14.7715 4.18066C15.1918 4.30373 15.7776 4.49961 16.582 4.85742L14.7197 6.71973C14.6413 6.79819 14.5812 6.89308 14.5439 6.99756C14.5065 7.10204 14.4928 7.2135 14.5038 7.32391C14.5147 7.43432 14.55 7.54093 14.6071 7.63605C14.6642 7.73118 14.7417 7.81246 14.834 7.87402L15.5254 8.33496L11.7285 11.7158L8.42285 8.37012L9.16602 7.87402C9.25324 7.81586 9.32729 7.74006 9.38341 7.65151C9.43953 7.56296 9.47647 7.46363 9.49184 7.35993C9.5072 7.25623 9.50066 7.15045 9.47263 7.04943C9.4446 6.94842 9.39571 6.8544 9.3291 6.77344L7.66602 4.74902C8.3735 4.45038 8.85183 4.29094 9.22852 4.18066ZM6.28516 5.43164L7.64453 7.08594L6.83398 7.62598C6.74197 7.68735 6.66467 7.76831 6.60762 7.86306C6.55056 7.95781 6.51517 8.064 6.50397 8.17403C6.49277 8.28407 6.50604 8.39522 6.54284 8.49952C6.57963 8.60382 6.63904 8.69869 6.7168 8.77734L11 13.1143V19.9746H8.25C7.82675 19.9746 7.5 19.6479 7.5 19.2246V11.2246C7.50131 11.1243 7.48248 11.0248 7.44464 10.9319C7.4068 10.839 7.35071 10.7546 7.27969 10.6838C7.20867 10.6129 7.12416 10.5571 7.03117 10.5194C6.93817 10.4818 6.83858 10.4633 6.73828 10.4648C6.53971 10.4679 6.35048 10.5497 6.21208 10.6921C6.07368 10.8345 5.99741 11.026 6 11.2246V17.9746H5.25C4.82675 17.9746 4.5 17.6479 4.5 17.2246V7.52539C4.5 7.09639 4.72522 6.67485 5.1875 6.23145C5.4822 5.94877 5.86802 5.67921 6.28516 5.43164ZM17.9736 5.58691C18.2906 5.79068 18.579 6.00752 18.8125 6.23145C19.2748 6.67485 19.5 7.09639 19.5 7.52539V17.2246C19.5 17.6479 19.1733 17.9746 18.75 17.9746H18V11.7246C18.0014 11.6252 17.983 11.5266 17.946 11.4343C17.9089 11.3421 17.8539 11.2582 17.7841 11.1874C17.7143 11.1166 17.6312 11.0604 17.5395 11.022C17.4478 10.9837 17.3494 10.9639 17.25 10.9639C17.1506 10.9639 17.0522 10.9837 16.9605 11.022C16.8688 11.0604 16.7857 11.1166 16.7159 11.1874C16.6461 11.2582 16.5911 11.3421 16.554 11.4343C16.517 11.5266 16.4986 11.6252 16.5 11.7246V19.2246C16.5 19.6479 16.1732 19.9746 15.75 19.9746H12.5V13.0381L17.249 8.81055C17.3347 8.73429 17.4017 8.63941 17.445 8.5332C17.4882 8.42699 17.5065 8.31227 17.4985 8.19787C17.4905 8.08347 17.4564 7.97243 17.3987 7.87329C17.3411 7.77414 17.2615 7.68954 17.166 7.62598L16.4268 7.13379L17.9736 5.58691ZM14.25 14C14.0511 14 13.8603 14.079 13.7197 14.2197C13.579 14.3603 13.5 14.5511 13.5 14.75C13.5 14.9489 13.579 15.1397 13.7197 15.2803C13.8603 15.421 14.0511 15.5 14.25 15.5C14.4489 15.5 14.6397 15.421 14.7803 15.2803C14.921 15.1397 15 14.9489 15 14.75C15 14.5511 14.921 14.3603 14.7803 14.2197C14.6397 14.079 14.4489 14 14.25 14ZM14.25 17C14.0511 17 13.8603 17.079 13.7197 17.2197C13.579 17.3603 13.5 17.5511 13.5 17.75C13.5 17.9489 13.579 18.1397 13.7197 18.2803C13.8603 18.421 14.0511 18.5 14.25 18.5C14.4489 18.5 14.6397 18.421 14.7803 18.2803C14.921 18.1397 15 17.9489 15 17.75C15 17.5511 14.921 17.3603 14.7803 17.2197C14.6397 17.079 14.4489 17 14.25 17Z" fill="#122B46"/>
</svg>
