<svg width="24" height="24" viewBox="0 0 24 24" fill="none" xmlns="http://www.w3.org/2000/svg">
<g clip-path="url(#clip0_3_21186)">
<path d="M16.0869 2C15.358 2 14.6571 2.28946 14.1416 2.80566L13.9472 3H11.0869C10.358 3 9.65709 3.28946 9.14157 3.80566L0.805634 12.1426C-0.262034 13.2102 -0.262034 14.9636 0.805634 16.0312L5.96872 21.1953C7.03639 22.263 8.7907 22.263 9.85837 21.1953L10.9131 20.1396L10.9687 20.1953C12.0364 21.263 13.7907 21.263 14.8584 20.1953L23.1953 11.8584C23.7108 11.3429 24.0009 10.6431 24.0009 9.91406V4.25C24.0002 3.01649 22.9837 2 21.75 2H16.0869ZM16.0869 3.5H21.75C22.1732 3.5 22.5007 3.82651 22.5009 4.25V9.91406C22.5009 10.245 22.3683 10.5633 22.1338 10.7979L13.7978 19.1338C13.3035 19.6281 12.5246 19.6281 12.0302 19.1338L6.86618 13.9707C6.37185 13.4764 6.37185 12.6975 6.86618 12.2031L15.2031 3.86621C15.4376 3.63142 15.7548 3.5 16.0869 3.5ZM11.0869 4.5H12.4472L5.80563 11.1426C4.73797 12.2102 4.73797 13.9636 5.80563 15.0312L9.85251 19.0791L8.79782 20.1338C8.30349 20.6281 7.52457 20.6281 7.03024 20.1338L1.86618 14.9707C1.37185 14.4764 1.37185 13.6975 1.86618 13.2031L10.2031 4.86621C10.4376 4.63142 10.7548 4.5 11.0869 4.5ZM19.5 5C19.1021 5 18.7206 5.15804 18.4393 5.43934C18.158 5.72064 18 6.10218 18 6.5C18 6.89782 18.158 7.27936 18.4393 7.56066C18.7206 7.84196 19.1021 8 19.5 8C19.8978 8 20.2793 7.84196 20.5606 7.56066C20.8419 7.27936 21 6.89782 21 6.5C21 6.10218 20.8419 5.72064 20.5606 5.43934C20.2793 5.15804 19.8978 5 19.5 5Z" fill="#122B46"/>
</g>
<defs>
<clipPath id="clip0_3_21186">
<rect width="24" height="24" fill="white"/>
</clipPath>
</defs>
</svg>
