<svg width="24" height="24" viewBox="0 0 24 24" fill="none" xmlns="http://www.w3.org/2000/svg">
<path d="M10.75 1.5C10.6506 1.49859 10.5519 1.51695 10.4597 1.55401C10.3675 1.59107 10.2836 1.6461 10.2128 1.71588C10.142 1.78566 10.0858 1.86882 10.0474 1.96051C10.0091 2.0522 9.98932 2.1506 9.98932 2.25C9.98932 2.34939 10.0091 2.4478 10.0474 2.53949C10.0858 2.63118 10.142 2.71434 10.2128 2.78412C10.2836 2.8539 10.3675 2.90892 10.4597 2.94598C10.5519 2.98304 10.6506 3.0014 10.75 3H11.25V4.03808C6.63849 4.42136 3 8.29141 3 13C3 17.9617 7.03832 22 12 22C16.9617 22 21 17.9617 21 13C21 10.7886 20.1948 8.76408 18.8662 7.19531L19.7783 6.28223C19.8865 6.17685 19.9604 6.04126 19.9903 5.89321C20.0201 5.74515 20.0046 5.59153 19.9457 5.45245C19.8868 5.31337 19.7873 5.1953 19.6602 5.1137C19.5331 5.0321 19.3844 4.99077 19.2334 4.99512C19.0386 5.00079 18.8537 5.08205 18.7178 5.22168L17.8047 6.13379C16.4155 4.95725 14.6679 4.19749 12.75 4.03808V3H13.25C13.3494 3.0014 13.4481 2.98304 13.5403 2.94598C13.6325 2.90892 13.7164 2.8539 13.7872 2.78412C13.858 2.71434 13.9142 2.63118 13.9526 2.53949C13.9909 2.4478 14.0107 2.34939 14.0107 2.25C14.0107 2.1506 13.9909 2.0522 13.9526 1.96051C13.9142 1.86882 13.858 1.78566 13.7872 1.71588C13.7164 1.6461 13.6325 1.59107 13.5403 1.55401C13.4481 1.51695 13.3494 1.49859 13.25 1.5H10.75ZM11.9111 5.50488C11.9715 5.51224 12.0324 5.51224 12.0928 5.50488C14.11 5.52944 15.9315 6.34257 17.2637 7.6543C17.288 7.68259 17.3145 7.70903 17.3428 7.7334C18.6765 9.08642 19.5 10.9439 19.5 13C19.5 17.151 16.151 20.5 12 20.5C7.84898 20.5 4.5 17.151 4.5 13C4.5 8.87898 7.80176 5.55281 11.9111 5.50488ZM15.2354 8.99316C15.0406 8.99884 14.8556 9.08009 14.7197 9.21973L12.3867 11.5527C12.2607 11.5184 12.1307 11.5007 12 11.5C11.6022 11.5 11.2206 11.658 10.9393 11.9393C10.658 12.2206 10.5 12.6022 10.5 13C10.5 13.3978 10.658 13.7794 10.9393 14.0607C11.2206 14.342 11.6022 14.5 12 14.5C12.23 14.4999 12.4568 14.4469 12.6631 14.3451C12.8693 14.2433 13.0493 14.0955 13.1893 13.913C13.3293 13.7306 13.4254 13.5184 13.4703 13.2928C13.5152 13.0673 13.5077 12.8345 13.4482 12.6123L15.7803 10.2803C15.8885 10.1749 15.9623 10.0393 15.9922 9.89125C16.0221 9.7432 16.0066 9.58958 15.9477 9.4505C15.8888 9.31141 15.7893 9.19334 15.6622 9.11174C15.5351 9.03014 15.3863 8.98881 15.2354 8.99316Z" fill="#122B46"/>
</svg>
