<svg width="30" height="30" viewBox="0 0 30 30" fill="none" xmlns="http://www.w3.org/2000/svg">
<path d="M26.25 8.75V7.8125C26.25 5.5725 24.4275 3.75 22.1875 3.75H7.8125C5.5725 3.75 3.75 5.5725 3.75 7.8125V8.75H26.25ZM3.75 10.625V22.1875C3.75 24.4275 5.5725 26.25 7.8125 26.25H22.1875C24.4275 26.25 26.25 24.4275 26.25 22.1875V10.625H3.75ZM20.3844 14.6894L14.7594 20.9394C14.5875 21.1306 14.3444 21.2431 14.0875 21.25C14.0794 21.25 14.0712 21.25 14.0625 21.25C13.8144 21.25 13.5756 21.1513 13.3994 20.9756L10.2744 17.8506C9.90812 17.485 9.90812 16.8906 10.2744 16.525C10.6406 16.1588 11.2337 16.1588 11.6 16.525L14.0262 18.9513L18.99 13.4356C19.3363 13.0506 19.9287 13.0188 20.3137 13.3663C20.6994 13.7119 20.7306 14.305 20.3844 14.6894Z" fill="#F7074F"/>
</svg>
