<svg width="24" height="24" viewBox="0 0 24 24" fill="none" xmlns="http://www.w3.org/2000/svg">
<path d="M12 2C8.73114 2 5.82541 3.57561 3.99998 6.00781V4.75C4.00142 4.64962 3.98269 4.54997 3.94491 4.45695C3.90713 4.36394 3.85106 4.27946 3.78002 4.20852C3.70899 4.13757 3.62443 4.08161 3.53137 4.04395C3.43831 4.00629 3.33864 3.98769 3.23826 3.98926C3.03952 3.99236 2.85013 4.07423 2.71171 4.21686C2.57328 4.3595 2.49713 4.55125 2.49998 4.75V7.75C2.5 7.94891 2.57902 8.13966 2.71967 8.28031C2.86032 8.42096 3.05107 8.49998 3.24998 8.5H6.24998C6.34936 8.50141 6.44803 8.48304 6.54026 8.44598C6.63249 8.40892 6.71643 8.3539 6.7872 8.28412C6.85798 8.21434 6.91418 8.13118 6.95254 8.03949C6.9909 7.9478 7.01066 7.84939 7.01066 7.75C7.01066 7.65061 6.9909 7.5522 6.95254 7.46051C6.91418 7.36882 6.85798 7.28566 6.7872 7.21588C6.71643 7.1461 6.63249 7.09108 6.54026 7.05402C6.44803 7.01696 6.34936 6.99859 6.24998 7H5.12791C6.67235 4.88011 9.17011 3.5 12 3.5C16.7031 3.5 20.5 7.29685 20.5 12C20.5 16.6213 16.8327 20.3663 12.2451 20.4961C12.1466 20.4989 12.0496 20.5211 11.9597 20.5614C11.8698 20.6017 11.7887 20.6593 11.7211 20.731C11.6534 20.8026 11.6005 20.8869 11.5654 20.9789C11.5304 21.071 11.5138 21.1691 11.5166 21.2676C11.5194 21.3661 11.5416 21.463 11.5819 21.553C11.6222 21.6429 11.6798 21.724 11.7514 21.7916C11.8231 21.8593 11.9073 21.9121 11.9994 21.9472C12.0915 21.9823 12.1896 21.9989 12.2881 21.9961C17.6715 21.8438 22 17.4177 22 12C22 6.48615 17.5138 2 12 2ZM11.7383 5.48926C11.5395 5.49236 11.3501 5.57423 11.2117 5.71686C11.0733 5.8595 10.9971 6.05125 11 6.25V6.82617C9.60387 7.01917 8.49998 8.17879 8.49998 9.625C8.49998 11.2039 9.79607 12.5 11.375 12.5H12.375C13.281 12.5 14 13.219 14 14.125C14 15.031 13.281 15.75 12.375 15.75H11.25C10.6611 15.75 10.1794 15.3517 10.04 14.8164C10.0174 14.7187 9.97552 14.6266 9.91672 14.5454C9.85793 14.4642 9.78346 14.3956 9.6977 14.3437C9.61195 14.2918 9.51666 14.2576 9.41747 14.2431C9.31827 14.2286 9.21718 14.2342 9.12017 14.2594C9.02316 14.2847 8.9322 14.3292 8.85266 14.3902C8.77312 14.4512 8.70662 14.5275 8.65709 14.6147C8.60756 14.7018 8.576 14.798 8.56428 14.8976C8.55256 14.9972 8.56091 15.0981 8.58884 15.1943C8.87618 16.2975 9.84315 17.0989 11 17.208V17.75C10.9986 17.8494 11.0169 17.9481 11.054 18.0403C11.0911 18.1325 11.1461 18.2164 11.2159 18.2872C11.2856 18.358 11.3688 18.4142 11.4605 18.4526C11.5522 18.4909 11.6506 18.5107 11.75 18.5107C11.8494 18.5107 11.9478 18.4909 12.0395 18.4526C12.1312 18.4142 12.2143 18.358 12.2841 18.2872C12.3539 18.2164 12.4089 18.1325 12.446 18.0403C12.483 17.9481 12.5014 17.8494 12.5 17.75V17.2246C14.1565 17.1546 15.5 15.7977 15.5 14.125C15.5 12.408 14.0919 11 12.375 11H11.375C10.6069 11 9.99998 10.3931 9.99998 9.625C9.99998 8.85691 10.6069 8.25 11.375 8.25H11.6269C11.7074 8.26323 11.7896 8.26323 11.8701 8.25H12.25C12.8345 8.25 13.3139 8.64339 13.457 9.17285C13.4827 9.26796 13.5269 9.35708 13.587 9.43511C13.6472 9.51315 13.7221 9.57857 13.8075 9.62764C13.893 9.67672 13.9872 9.70848 14.0849 9.72112C14.1826 9.73376 14.2819 9.72703 14.377 9.70132C14.4721 9.6756 14.5612 9.6314 14.6392 9.57124C14.7172 9.51109 14.7826 9.43615 14.8317 9.35071C14.8807 9.26527 14.9125 9.17101 14.9251 9.0733C14.9377 8.97559 14.931 8.87635 14.9053 8.78125C14.6103 7.68983 13.6485 6.90017 12.5 6.79199V6.25C12.5014 6.14962 12.4827 6.04997 12.4449 5.95695C12.4071 5.86394 12.3511 5.77946 12.28 5.70852C12.209 5.63757 12.1244 5.58161 12.0314 5.54395C11.9383 5.50629 11.8386 5.48769 11.7383 5.48926ZM2.76951 11.0146C2.35451 11.0046 2.00998 11.335 1.99998 11.75C1.98998 12.165 2.32033 12.5046 2.73533 12.5146H2.74998C3.15498 12.5146 3.48998 12.1952 3.49998 11.7852C3.50998 11.3702 3.18451 11.0246 2.76951 11.0146ZM3.08884 13.9795C3.03932 13.9845 2.98978 13.9941 2.94041 14.0098C2.54541 14.1298 2.32041 14.5503 2.44041 14.9453C2.54041 15.2703 2.83513 15.4746 3.16013 15.4746C3.23013 15.4746 3.30486 15.4653 3.37986 15.4453C3.77486 15.3203 3.99498 14.8999 3.87498 14.5049C3.76998 14.1593 3.43549 13.9442 3.08884 13.9795ZM4.46482 16.6504C4.32048 16.6547 4.17541 16.7 4.04978 16.79C3.71478 17.035 3.63486 17.4998 3.87986 17.8398C4.02486 18.0398 4.25521 18.1504 4.49021 18.1504C4.64021 18.1504 4.79478 18.1048 4.92478 18.0098C5.25978 17.7648 5.3397 17.3 5.0947 16.96C4.9447 16.7506 4.7054 16.6432 4.46482 16.6504ZM6.62302 18.7598C6.38225 18.753 6.14334 18.8627 5.99021 19.0752C5.75021 19.4102 5.82502 19.8801 6.16502 20.1201H6.16013C6.29513 20.2151 6.44959 20.2598 6.59959 20.2598C6.82959 20.2598 7.05994 20.1552 7.20994 19.9502C7.44994 19.6152 7.37502 19.1454 7.04002 18.9004C6.91252 18.8104 6.76749 18.7638 6.62302 18.7598ZM9.1992 20.0938C8.90857 20.1228 8.64841 20.3239 8.55466 20.6201C8.43466 21.0151 8.65478 21.4346 9.04978 21.5596C9.12478 21.5796 9.20037 21.5898 9.27537 21.5898C9.59537 21.5898 9.89021 21.3846 9.99021 21.0596C10.1102 20.6646 9.89009 20.245 9.49509 20.125C9.39634 20.0938 9.29607 20.0841 9.1992 20.0938Z" fill="#122B46"/>
</svg>
