<svg width="24" height="24" viewBox="0 0 24 24" fill="none" xmlns="http://www.w3.org/2000/svg">
<path d="M12 2C8.73117 2 5.82544 3.57561 4.00001 6.00781V4.75C4.00145 4.64962 3.98272 4.54997 3.94494 4.45695C3.90716 4.36394 3.85109 4.27946 3.78005 4.20852C3.70902 4.13757 3.62447 4.08161 3.5314 4.04395C3.43834 4.00629 3.33867 3.98769 3.23829 3.98926C3.03955 3.99236 2.85016 4.07423 2.71174 4.21686C2.57331 4.3595 2.49716 4.55125 2.50001 4.75V7.75C2.50003 7.94891 2.57905 8.13966 2.7197 8.28031C2.86035 8.42096 3.0511 8.49998 3.25001 8.5H6.25001C6.34939 8.50141 6.44806 8.48304 6.54029 8.44598C6.63252 8.40892 6.71646 8.3539 6.78723 8.28412C6.85801 8.21434 6.91421 8.13118 6.95257 8.03949C6.99093 7.9478 7.01069 7.84939 7.01069 7.75C7.01069 7.65061 6.99093 7.5522 6.95257 7.46051C6.91421 7.36882 6.85801 7.28566 6.78723 7.21588C6.71646 7.1461 6.63252 7.09108 6.54029 7.05402C6.44806 7.01696 6.34939 6.99859 6.25001 7H5.12794C6.67238 4.88011 9.17015 3.5 12 3.5C16.7032 3.5 20.5 7.29685 20.5 12C20.5 16.6213 16.8327 20.3663 12.2451 20.4961C12.1466 20.4989 12.0497 20.5211 11.9597 20.5614C11.8698 20.6017 11.7887 20.6593 11.7211 20.731C11.6534 20.8026 11.6006 20.8869 11.5655 20.9789C11.5304 21.071 11.5138 21.1691 11.5166 21.2676C11.5194 21.3661 11.5416 21.463 11.5819 21.553C11.6222 21.6429 11.6798 21.724 11.7515 21.7916C11.8231 21.8593 11.9074 21.9121 11.9994 21.9472C12.0915 21.9823 12.1896 21.9989 12.2881 21.9961C17.6715 21.8438 22 17.4177 22 12C22 6.48615 17.5139 2 12 2ZM11.7383 5.48926C11.5395 5.49236 11.3502 5.57423 11.2117 5.71686C11.0733 5.8595 10.9972 6.05125 11 6.25V6.82617C9.6039 7.01917 8.50001 8.17879 8.50001 9.625C8.50001 11.2039 9.7961 12.5 11.375 12.5H12.375C13.2811 12.5 14 13.219 14 14.125C14 15.031 13.2811 15.75 12.375 15.75H11.25C10.6611 15.75 10.1795 15.3517 10.04 14.8164C10.0175 14.7187 9.97555 14.6266 9.91675 14.5454C9.85796 14.4642 9.78349 14.3956 9.69773 14.3437C9.61198 14.2918 9.51669 14.2576 9.4175 14.2431C9.3183 14.2286 9.21721 14.2342 9.1202 14.2594C9.02319 14.2847 8.93223 14.3292 8.85269 14.3902C8.77315 14.4512 8.70665 14.5275 8.65712 14.6147C8.60759 14.7018 8.57603 14.798 8.56431 14.8976C8.55259 14.9972 8.56094 15.0981 8.58887 15.1943C8.87622 16.2975 9.84318 17.0989 11 17.208V17.75C10.9986 17.8494 11.017 17.9481 11.054 18.0403C11.0911 18.1325 11.1461 18.2164 11.2159 18.2872C11.2857 18.358 11.3688 18.4142 11.4605 18.4526C11.5522 18.4909 11.6506 18.5107 11.75 18.5107C11.8494 18.5107 11.9478 18.4909 12.0395 18.4526C12.1312 18.4142 12.2143 18.358 12.2841 18.2872C12.3539 18.2164 12.4089 18.1325 12.446 18.0403C12.4831 17.9481 12.5014 17.8494 12.5 17.75V17.2246C14.1565 17.1546 15.5 15.7977 15.5 14.125C15.5 12.408 14.092 11 12.375 11H11.375C10.6069 11 10 10.3931 10 9.625C10 8.85691 10.6069 8.25 11.375 8.25H11.627C11.7075 8.26323 11.7896 8.26323 11.8701 8.25H12.25C12.8346 8.25 13.3139 8.64339 13.457 9.17285C13.4827 9.26796 13.5269 9.35708 13.5871 9.43511C13.6472 9.51315 13.7221 9.57857 13.8076 9.62764C13.893 9.67672 13.9872 9.70848 14.0849 9.72112C14.1827 9.73376 14.2819 9.72703 14.377 9.70132C14.4721 9.6756 14.5612 9.6314 14.6392 9.57124C14.7173 9.51109 14.7827 9.43615 14.8317 9.35071C14.8808 9.26527 14.9125 9.17101 14.9251 9.0733C14.9378 8.97559 14.931 8.87635 14.9053 8.78125C14.6103 7.68983 13.6485 6.90017 12.5 6.79199V6.25C12.5014 6.14962 12.4827 6.04997 12.4449 5.95695C12.4072 5.86394 12.3511 5.77946 12.2801 5.70852C12.209 5.63757 12.1245 5.58161 12.0314 5.54395C11.9383 5.50629 11.8387 5.48769 11.7383 5.48926ZM2.76954 11.0146C2.35454 11.0046 2.01001 11.335 2.00001 11.75C1.99001 12.165 2.32036 12.5046 2.73536 12.5146H2.75001C3.15501 12.5146 3.49001 12.1952 3.50001 11.7852C3.51001 11.3702 3.18454 11.0246 2.76954 11.0146ZM3.08887 13.9795C3.03935 13.9845 2.98981 13.9941 2.94044 14.0098C2.54544 14.1298 2.32044 14.5503 2.44044 14.9453C2.54044 15.2703 2.83516 15.4746 3.16016 15.4746C3.23016 15.4746 3.30489 15.4653 3.37989 15.4453C3.77489 15.3203 3.99501 14.8999 3.87501 14.5049C3.77001 14.1593 3.43553 13.9442 3.08887 13.9795ZM4.46485 16.6504C4.32051 16.6547 4.17544 16.7 4.04981 16.79C3.71481 17.035 3.63489 17.4998 3.87989 17.8398C4.02489 18.0398 4.25524 18.1504 4.49024 18.1504C4.64024 18.1504 4.79481 18.1048 4.92481 18.0098C5.25981 17.7648 5.33973 17.3 5.09473 16.96C4.94473 16.7506 4.70543 16.6432 4.46485 16.6504ZM6.62305 18.7598C6.38228 18.753 6.14337 18.8627 5.99024 19.0752C5.75024 19.4102 5.82505 19.8801 6.16505 20.1201H6.16016C6.29516 20.2151 6.44962 20.2598 6.59962 20.2598C6.82962 20.2598 7.05997 20.1552 7.20997 19.9502C7.44997 19.6152 7.37505 19.1454 7.04005 18.9004C6.91255 18.8104 6.76752 18.7638 6.62305 18.7598ZM9.19923 20.0938C8.9086 20.1228 8.64845 20.3239 8.5547 20.6201C8.4347 21.0151 8.65481 21.4346 9.04981 21.5596C9.12481 21.5796 9.2004 21.5898 9.2754 21.5898C9.5954 21.5898 9.89024 21.3846 9.99024 21.0596C10.1102 20.6646 9.89012 20.245 9.49512 20.125C9.39637 20.0938 9.2961 20.0841 9.19923 20.0938Z" fill="#122B46"/>
</svg>
