<svg width="24" height="24" viewBox="0 0 24 24" fill="none" xmlns="http://www.w3.org/2000/svg">
<path d="M12 2C6.48603 2 2 6.48604 2 12C2 17.514 6.48603 22 12 22C17.514 22 22 17.514 22 12C22 6.48604 17.514 2 12 2ZM12 3.5C16.7033 3.5 20.5 7.2967 20.5 12C20.5 16.7033 16.7033 20.5 12 20.5C7.29669 20.5 3.5 16.7033 3.5 12C3.5 7.2967 7.29669 3.5 12 3.5ZM11.7383 5.48926C11.5395 5.49236 11.3502 5.57423 11.2117 5.71686C11.0733 5.8595 10.9971 6.05125 11 6.25V6.82617C9.6039 7.01917 8.5 8.17879 8.5 9.625C8.5 11.2039 9.79609 12.5 11.375 12.5H12.375C13.281 12.5 14 13.219 14 14.125C14 15.031 13.281 15.75 12.375 15.75H11.25C10.6611 15.75 10.1795 15.3517 10.04 14.8164C10.0175 14.7187 9.97554 14.6266 9.91675 14.5454C9.85795 14.4642 9.78348 14.3956 9.69773 14.3437C9.61197 14.2918 9.51668 14.2576 9.41749 14.2431C9.31829 14.2286 9.2172 14.2342 9.12019 14.2594C9.02318 14.2847 8.93222 14.3292 8.85268 14.3902C8.77314 14.4512 8.70664 14.5275 8.65711 14.6147C8.60758 14.7018 8.57602 14.798 8.5643 14.8976C8.55258 14.9972 8.56093 15.0981 8.58887 15.1943C8.87621 16.2975 9.84318 17.0989 11 17.208V17.75C10.9986 17.8494 11.017 17.9481 11.054 18.0403C11.0911 18.1325 11.1461 18.2164 11.2159 18.2872C11.2857 18.358 11.3688 18.4142 11.4605 18.4526C11.5522 18.4909 11.6506 18.5107 11.75 18.5107C11.8494 18.5107 11.9478 18.4909 12.0395 18.4526C12.1312 18.4142 12.2143 18.358 12.2841 18.2872C12.3539 18.2164 12.4089 18.1325 12.446 18.0403C12.483 17.9481 12.5014 17.8494 12.5 17.75V17.2246C14.1565 17.1546 15.5 15.7977 15.5 14.125C15.5 12.408 14.092 11 12.375 11H11.375C10.6069 11 10 10.3931 10 9.625C10 8.85691 10.6069 8.25 11.375 8.25H11.627C11.7075 8.26323 11.7896 8.26323 11.8701 8.25H12.25C12.8346 8.25 13.3139 8.64339 13.457 9.17285C13.4827 9.26796 13.5269 9.35708 13.5871 9.43511C13.6472 9.51315 13.7221 9.57857 13.8075 9.62764C13.893 9.67672 13.9872 9.70848 14.0849 9.72112C14.1826 9.73376 14.2819 9.72703 14.377 9.70132C14.4721 9.6756 14.5612 9.6314 14.6392 9.57124C14.7172 9.51109 14.7827 9.43615 14.8317 9.35071C14.8808 9.26527 14.9125 9.17101 14.9251 9.0733C14.9378 8.97559 14.931 8.87635 14.9053 8.78125C14.6103 7.68983 13.6485 6.90017 12.5 6.79199V6.25C12.5014 6.14962 12.4827 6.04997 12.4449 5.95695C12.4071 5.86394 12.3511 5.77946 12.28 5.70852C12.209 5.63757 12.1245 5.58161 12.0314 5.54395C11.9383 5.50629 11.8387 5.48769 11.7383 5.48926Z" fill="#122B46"/>
</svg>
