<svg width="24" height="24" viewBox="0 0 24 24" fill="none" xmlns="http://www.w3.org/2000/svg">
<path d="M12.0244 0.999999C11.831 0.993964 11.6428 1.06289 11.499 1.19238C11.499 1.19238 7.74508 4.5 3.25 4.5C3.05109 4.50002 2.86034 4.57904 2.71969 4.71969C2.57904 4.86034 2.50002 5.05109 2.5 5.25V11.3799C2.5 14.7189 4.04471 20.2132 11.709 23.4414C11.8011 23.4802 11.9 23.5002 12 23.5002C12.1 23.5002 12.1989 23.4802 12.291 23.4414C19.9553 20.2132 21.5 14.7189 21.5 11.3799V5.25C21.5 5.05109 21.421 4.86034 21.2803 4.71969C21.1397 4.57904 20.9489 4.50002 20.75 4.5C16.2549 4.5 12.501 1.19238 12.501 1.19238C12.3697 1.07414 12.201 1.00601 12.0244 0.999999ZM12 2.71387C13.0315 3.54318 16.0556 5.66859 20 5.9375V11.3799C20 14.251 18.8967 18.8828 12 21.9131C5.10328 18.8828 4 14.251 4 11.3799V5.9375C7.94437 5.66859 10.9685 3.54318 12 2.71387ZM12 6C11.0625 6 10.2644 6.37857 9.75195 6.95508C9.2395 7.53159 9 8.27083 9 9C9 9.72917 9.2395 10.4684 9.75195 11.0449C10.2644 11.6214 11.0625 12 12 12C12.9375 12 13.7356 11.6214 14.248 11.0449C14.7605 10.4684 15 9.72917 15 9C15 8.27083 14.7605 7.53159 14.248 6.95508C13.7356 6.37857 12.9375 6 12 6ZM12 7.5C12.5625 7.5 12.8894 7.68393 13.127 7.95117C13.3645 8.21841 13.5 8.60417 13.5 9C13.5 9.39583 13.3645 9.78159 13.127 10.0488C12.8894 10.3161 12.5625 10.5 12 10.5C11.4375 10.5 11.1106 10.3161 10.873 10.0488C10.6355 9.78159 10.5 9.39583 10.5 9C10.5 8.60417 10.6355 8.21841 10.873 7.95117C11.1106 7.68393 11.4375 7.5 12 7.5ZM9.25 13C8.29091 13 7.5 13.7909 7.5 14.75V15.25C7.5 15.4788 7.52694 15.6974 7.57617 15.9014C7.60889 16.0365 7.67854 16.1599 7.77734 16.2578C8.86086 17.3299 10.3569 18 12 18C13.6431 18 15.1391 17.3299 16.2227 16.2578C16.3215 16.1599 16.3911 16.0365 16.4238 15.9014C16.4731 15.6974 16.5 15.4788 16.5 15.25V14.75C16.5 13.7909 15.7091 13 14.75 13H9.25ZM9.25 14.5H14.75C14.8909 14.5 15 14.6091 15 14.75V15.25C15 15.2718 14.9941 15.2876 14.9932 15.3086C14.1931 16.0309 13.1611 16.5 12 16.5C10.8389 16.5 9.80692 16.0309 9.00684 15.3086C9.00586 15.2876 9 15.2718 9 15.25V14.75C9 14.6091 9.10909 14.5 9.25 14.5Z" fill="#122B46"/>
</svg>
