<svg width="24" height="24" viewBox="0 0 24 24" fill="none" xmlns="http://www.w3.org/2000/svg">
<g clip-path="url(#clip0_3_21264)">
<path d="M15.8789 0.962888C15.8613 0.962595 15.8437 0.962921 15.8262 0.963864C8.82555 1.19566 4.7311 4.93129 2.59668 9.06543C0.462256 13.1996 0.155865 17.658 0.43164 19.8643C0.438234 19.9212 0.45134 19.9773 0.470703 20.0312C0.332627 20.735 0.10509 21.4626 0.00781227 22.1436C-0.00919102 22.2424 -0.0062104 22.3436 0.0165779 22.4412C0.0393662 22.5389 0.0814997 22.631 0.140487 22.712C0.199475 22.7931 0.27412 22.8615 0.360008 22.9133C0.445897 22.965 0.541286 22.999 0.640536 23.0132C0.739786 23.0275 0.840883 23.0217 0.93785 22.9961C1.03482 22.9706 1.12569 22.9259 1.20508 22.8647C1.28448 22.8035 1.3508 22.727 1.40011 22.6397C1.44942 22.5524 1.48073 22.4561 1.49219 22.3564C1.98335 18.9183 2.96906 15.1359 4.88281 11.999C6.79657 8.86216 9.59641 6.36492 13.8682 5.3457C14.0173 5.3101 14.1519 5.22967 14.2539 5.11523L15.6455 3.55468L15.7891 5.30859C15.7992 5.43175 15.8397 5.55048 15.9068 5.65423C15.9739 5.75799 16.0657 5.84355 16.1738 5.90332C18.4623 7.17005 19.5215 10.9287 19.5215 10.9287C19.5575 11.0724 19.6354 11.2022 19.7451 11.3018C20.5 11.9862 21.3235 12.4496 21.8359 12.9316C22.3484 13.4136 22.5859 13.7658 22.4521 14.6084C22.4518 14.6103 22.4515 14.6123 22.4512 14.6143C22.3991 14.9622 21.8181 15.7323 21.1826 15.9404C20.8649 16.0445 20.5624 16.0502 20.2305 15.9033C19.8986 15.7565 19.5083 15.4318 19.1211 14.752C19.0263 14.5858 18.8715 14.4621 18.6885 14.4062C18.0246 14.2031 17.0574 13.9849 16.125 13.7734C15.2876 13.5835 14.561 13.4093 14.126 13.2832C14.0896 13.2672 14.0521 13.2542 14.0137 13.2441C13.1467 13.0116 13.0439 12.165 13.0439 12.165C13.0297 12.067 12.9962 11.9727 12.9453 11.8876C12.8945 11.8026 12.8272 11.7284 12.7475 11.6695C12.6678 11.6106 12.5773 11.568 12.481 11.5443C12.3848 11.5206 12.2848 11.5162 12.1869 11.5314C12.0889 11.5466 11.995 11.581 11.9104 11.6327C11.8258 11.6844 11.7524 11.7523 11.6942 11.8326C11.6361 11.9128 11.5944 12.0038 11.5716 12.1003C11.5489 12.1967 11.5454 12.2967 11.5615 12.3945C11.5615 12.3945 11.8157 13.5776 12.8398 14.2812C12.2622 16.7755 11.6987 18.3573 13.0361 22.4814C13.0975 22.6708 13.2316 22.828 13.4089 22.9184C13.5862 23.0089 13.7921 23.0252 13.9814 22.9639C14.1708 22.9025 14.328 22.7684 14.4184 22.5911C14.5089 22.4138 14.5253 22.2079 14.4639 22.0186C13.2456 18.2618 13.6872 17.1402 14.2451 14.8535C14.7321 14.9773 15.1808 15.0975 15.793 15.2363C16.6445 15.4295 17.4696 15.6249 18.0391 15.7881C18.5011 16.4876 19.029 17.0111 19.624 17.2744C20.3101 17.578 21.0365 17.567 21.6494 17.3662C22.8741 16.9651 23.7625 15.9741 23.9336 14.8398C24.139 13.5389 23.5735 12.5078 22.8633 11.8398C22.1929 11.2094 21.4452 10.7738 20.873 10.2842C20.7678 9.84895 19.9152 6.57717 17.2559 4.84082L16.9971 1.68847C16.9884 1.58519 16.9583 1.48484 16.9089 1.39375C16.8595 1.30265 16.7917 1.22279 16.7098 1.1592C16.628 1.09561 16.5338 1.04968 16.4334 1.02429C16.3329 0.998909 16.2282 0.994627 16.126 1.01172C16.047 0.981631 15.9634 0.965122 15.8789 0.962888ZM14.4912 2.59472L13.2568 3.97949C8.73928 5.1391 5.63262 7.89024 3.60254 11.2178C3.25064 11.7946 2.96936 12.4058 2.67578 13.0107C2.98686 11.9233 3.37847 10.8216 3.92969 9.7539C5.736 6.25528 8.89174 3.20857 14.4912 2.59472ZM16.75 8C16.5511 8 16.3603 8.07902 16.2197 8.21967C16.079 8.36032 16 8.55108 16 8.75C16 8.94891 16.079 9.13967 16.2197 9.28033C16.3603 9.42098 16.5511 9.5 16.75 9.5C16.9489 9.5 17.1397 9.42098 17.2803 9.28033C17.421 9.13967 17.5 8.94891 17.5 8.75C17.5 8.55108 17.421 8.36032 17.2803 8.21967C17.1397 8.07902 16.9489 8 16.75 8Z" fill="#122B46"/>
</g>
<defs>
<clipPath id="clip0_3_21264">
<rect width="24" height="24" fill="white"/>
</clipPath>
</defs>
</svg>
